<svg width="40" height="40" viewBox="0 0 40 40" fill="none" xmlns="http://www.w3.org/2000/svg">
<rect width="40" height="40" rx="20" fill="black"/>
<path d="M18.7875 5.89243C19.1183 5.548 19.4526 5.20385 19.827 4.90625C20.5149 5.48254 21.1229 6.14785 21.6774 6.85127C22.387 7.76269 22.9964 8.75963 23.4116 9.83891C23.8432 10.9476 24.0572 12.1531 23.9313 13.3409C24.3109 12.9409 24.7343 12.5816 25.1948 12.2773C26.1143 11.6757 27.1717 11.3057 28.2509 11.1134C29.2933 10.9225 30.36 10.906 31.415 10.9793C32.2195 11.0485 33.0242 11.1637 33.803 11.3816C33.8196 11.3892 33.8532 11.4037 33.8701 11.411C33.7531 12.4248 33.5066 13.4223 33.1679 14.3849C32.7372 15.598 32.136 16.762 31.309 17.7557C30.8331 18.3198 30.2873 18.8306 29.6651 19.2321C28.9464 19.6949 28.1446 20.0257 27.3139 20.227C27.1629 19.9876 27.0006 19.7554 26.8233 19.5346C26.9678 19.5233 27.1057 19.4776 27.2452 19.4418C27.9545 19.2521 28.6442 18.9694 29.2563 18.5627C29.2586 18.5545 29.2633 18.538 29.2656 18.5298C28.8772 18.3518 28.4658 18.2276 28.0506 18.1298C27.8982 18.0984 27.7478 18.0551 27.5921 18.0449C26.8192 17.9364 26.0259 17.9556 25.2629 18.1228C24.857 17.8697 24.4321 17.6455 23.9833 17.477C24.6938 16.6241 25.1945 15.596 25.4042 14.5065C25.495 14.0152 25.542 13.5137 25.5169 13.0142C25.2392 13.1803 25.0004 13.4028 24.7595 13.6167C23.7497 14.5796 23.053 15.8203 22.5572 17.1113C22.2742 17.0756 21.9895 17.0645 21.7054 17.043C21.7612 16.9551 21.8149 16.8649 21.8508 16.7666C22.0605 16.2136 22.3137 15.6775 22.6024 15.1611C22.6778 15.0206 22.7794 14.8926 22.8285 14.7393C23.0513 14.0807 23.171 13.3877 23.1873 12.6933C22.7657 12.933 22.3887 13.246 22.0406 13.582C21.2511 14.3527 20.6694 15.3287 20.3564 16.3841C20.3275 16.4833 20.2965 16.5816 20.2676 16.6808C20.2116 16.8475 20.206 17.0247 20.2235 17.1983C19.987 17.2484 19.754 17.3124 19.5259 17.3915C19.4699 17.4252 19.4413 17.3586 19.4179 17.3205C19.4491 17.1256 19.4445 16.9193 19.3884 16.7282C19.1268 15.6783 18.6146 14.6887 17.8902 13.8811C17.4743 13.4223 17.0001 13.0113 16.4658 12.6948C16.4611 13.4546 16.6369 14.2034 16.8755 14.9211C16.7052 14.8556 16.5472 14.7628 16.3793 14.6924C16.2348 14.6308 16.0865 14.5799 15.9408 14.522C15.7416 13.7973 15.6491 13.0415 15.6879 12.2907C15.7545 11.0974 16.1253 9.93607 16.6675 8.87541C17.2253 7.78596 17.9573 6.79076 18.7875 5.89243ZM17.4005 9.1573C17.6785 9.34349 17.9564 9.53171 18.2067 9.75483C18.6371 10.1252 19.0097 10.5601 19.3201 11.0343C19.356 11.0863 19.3782 11.1503 19.4307 11.189C19.4363 10.0152 19.4316 8.84109 19.4331 7.66698C19.4287 7.22945 19.4421 6.79163 19.4267 6.35469C18.6368 7.1992 17.941 8.13476 17.4005 9.1573ZM20.2212 6.37854C20.2022 6.6712 20.2358 6.9656 20.2191 7.25912C20.2241 8.47018 20.2186 9.68152 20.2229 10.8932C20.2238 10.9924 20.2022 11.0921 20.2256 11.1908C20.2732 11.1227 20.3167 11.052 20.3628 10.9828C20.8426 10.2514 21.4899 9.63585 22.2304 9.16981C22.1963 9.05898 22.1364 8.95891 22.0809 8.85796C21.6178 8.03294 21.0487 7.27018 20.4151 6.56792C20.3523 6.50305 20.3012 6.42392 20.2212 6.37854ZM22.3887 10.0039L22.3907 10.0103C21.3927 10.7035 20.6566 11.7508 20.3202 12.9135C20.2676 13.0907 20.2063 13.2681 20.2186 13.4555C20.2241 13.8628 20.2212 14.2712 20.2229 14.6788C20.2317 14.668 20.2492 14.6465 20.2577 14.6354C20.79 13.6926 21.534 12.8664 22.4261 12.2488L22.4272 12.2331C22.4626 12.2188 22.497 12.2017 22.5286 12.1799C22.7181 12.0475 22.9187 11.9317 23.1237 11.8258C23.0451 11.1553 22.848 10.5001 22.5808 9.88109C22.5175 9.92327 22.4535 9.964 22.3887 10.0039ZM17.0574 9.88487C16.8083 10.5086 16.6018 11.1556 16.521 11.8241C17.7485 12.4647 18.7524 13.4936 19.4275 14.6939C19.4401 14.2415 19.431 13.7883 19.4322 13.3359C19.2082 12.2363 18.6312 11.2082 17.8014 10.4478C17.5692 10.2415 17.3289 10.0373 17.0574 9.88487ZM28.9689 11.7897C28.9967 12.3591 28.9342 12.9313 28.806 13.4866C28.7161 13.8741 28.5706 14.2456 28.4214 14.613C29.6884 13.7516 30.9589 12.8958 32.2265 12.0356C32.2939 11.9867 32.3734 11.9512 32.4268 11.8857C31.2851 11.7019 30.1188 11.669 28.9689 11.7897ZM26.2738 12.5595C26.2653 12.684 26.2968 12.8073 26.2983 12.9319C26.3605 14.1848 26.0889 15.4546 25.5114 16.57C25.8985 16.3346 26.2644 16.0635 26.6437 15.8145C26.9372 15.5297 27.1772 15.1943 27.3962 14.8507C27.9344 13.9765 28.2153 12.9452 28.1832 11.9195C27.5238 12.0539 26.8765 12.2593 26.2738 12.5595ZM32.6715 12.6776L32.6709 12.6849C31.4375 13.5105 30.2126 14.3486 28.9815 15.1771C28.9447 15.2024 28.9026 15.2245 28.8831 15.2667C29.661 15.2283 30.4494 15.3333 31.1852 15.5902C31.3563 15.6492 31.5251 15.715 31.6918 15.786C32.2457 14.7745 32.6198 13.6737 32.8835 12.5543C32.8035 12.5772 32.741 12.6348 32.6715 12.6776ZM28.4092 16.0978C27.9574 16.1673 27.5066 16.2741 27.0884 16.4612C26.7132 16.7154 26.3327 16.9636 25.964 17.2268C26.1021 17.2219 26.2405 17.2164 26.3783 17.2018C27.2485 17.1739 28.1248 17.2923 28.9508 17.5701C29.3036 17.6897 29.6513 17.8284 29.9769 18.0103C30.2864 17.7426 30.563 17.4389 30.8196 17.1207C30.9817 16.9077 31.1528 16.698 31.2824 16.4635C31.0407 16.3727 30.8006 16.2729 30.5484 16.2156C29.8519 16.0393 29.1205 15.9835 28.4092 16.0978Z" fill="#172C17"/>
<path d="M17.4006 9.15711C17.9411 8.13456 18.637 7.199 19.4268 6.35449C19.4423 6.79144 19.4289 7.22926 19.4332 7.66678C19.4318 8.84089 19.4365 10.015 19.4309 11.1888C19.3784 11.1501 19.3562 11.0861 19.3202 11.0341C19.0098 10.5599 18.6373 10.125 18.2068 9.75464C17.9566 9.53151 17.6786 9.34329 17.4006 9.15711Z" fill="#8DC740"/>
<path d="M20.2214 6.37842C20.3014 6.4238 20.3525 6.50293 20.4152 6.5678C21.0489 7.27005 21.618 8.03282 22.0811 8.85784C22.1366 8.95878 22.1964 9.05885 22.2306 9.16969C21.4901 9.63573 20.8427 10.2513 20.363 10.9826C20.3168 11.0519 20.2733 11.1226 20.2257 11.1906C20.2024 11.092 20.224 10.9922 20.2231 10.893C20.2187 9.6814 20.2243 8.47005 20.2193 7.259C20.236 6.96547 20.2024 6.67107 20.2214 6.37842Z" fill="#8DC740"/>
<path d="M17.0574 9.88477C17.329 10.0372 17.5693 10.2414 17.8014 10.4477C18.6313 11.2081 19.2083 12.2362 19.4322 13.3358C19.4311 13.7882 19.4401 14.2414 19.4276 14.6938C18.7525 13.4935 17.7486 12.4645 16.521 11.824C16.6019 11.1555 16.8083 10.5085 17.0574 9.88477Z" fill="#8DC740"/>
<path d="M20.3202 12.9135C20.6566 11.7508 21.3928 10.7035 22.3908 10.0103C22.4939 10.4219 22.505 10.8513 22.5053 11.2737C22.5041 11.5954 22.4635 11.9143 22.4273 12.2331L22.4261 12.2488C21.5341 12.8664 20.7901 13.6926 20.2578 14.6354C20.2493 14.6465 20.2318 14.668 20.223 14.6788C20.2213 14.2712 20.2242 13.8628 20.2186 13.4555C20.2064 13.2681 20.2677 13.0907 20.3202 12.9135Z" fill="#8DC740"/>
<path d="M28.969 11.7896C30.1189 11.6689 31.2852 11.7017 32.4269 11.8856C32.3734 11.951 32.294 11.9865 32.2266 12.0354C30.959 12.8956 29.6885 13.7515 28.4215 14.6129C28.5707 14.2454 28.7161 13.874 28.8061 13.4865C28.9343 12.9311 28.9967 12.3589 28.969 11.7896Z" fill="#8DC740"/>
<path d="M28.9816 15.177C30.2127 14.3485 31.4376 13.5104 32.671 12.6848C32.6669 12.7637 32.6357 12.8373 32.6068 12.9097C32.2537 13.8601 31.7827 14.7689 31.1853 15.5901C30.4495 15.3333 29.6611 15.2282 28.8832 15.2666C28.9027 15.2245 28.9448 15.2023 28.9816 15.177Z" fill="#8DC740"/>
<path d="M22.3888 10.0039C22.4536 9.96401 22.5176 9.92329 22.5809 9.8811C22.8481 10.5002 23.0452 11.1553 23.1238 11.8258C22.9188 11.9317 22.7182 12.0475 22.5287 12.1799C22.4971 12.2017 22.4627 12.2188 22.4273 12.2331C22.4635 11.9143 22.5041 11.5954 22.5053 11.2737C22.505 10.8513 22.4939 10.4219 22.3908 10.0103L22.3888 10.0039Z" fill="#68913E"/>
<path d="M32.6716 12.6775C32.7411 12.6348 32.8036 12.5772 32.8836 12.5542C32.6199 13.6736 32.2458 14.7744 31.6919 15.7859C31.5252 15.7149 31.3564 15.6492 31.1853 15.5901C31.7827 14.7689 32.2537 13.8601 32.6068 12.9097C32.6357 12.8373 32.6669 12.7637 32.671 12.6848L32.6716 12.6775Z" fill="#68913E"/>
<path d="M22.0408 13.5821C22.3889 13.2461 22.7658 12.9331 23.1875 12.6934C23.1711 13.3878 23.0514 14.0807 22.8286 14.7393C22.7796 14.8926 22.6779 15.0206 22.6026 15.1611C22.3138 15.6775 22.0607 16.2137 21.851 16.7667C21.8151 16.865 21.7613 16.9552 21.7056 17.043C21.208 17.043 20.7093 17.0881 20.2237 17.1984C20.2062 17.0247 20.2117 16.8475 20.2678 16.6809C20.2751 16.6884 20.2897 16.703 20.2967 16.7102C20.9814 15.8244 21.5771 14.8612 21.9801 13.8151C22.0069 13.7395 22.049 13.665 22.0408 13.5821Z" fill="#68913E"/>
<path d="M30.5485 16.2156C30.8007 16.2729 31.0408 16.3727 31.2825 16.4634C31.1529 16.6979 30.9818 16.9076 30.8197 17.1206C30.5631 17.4388 30.2865 17.7426 29.977 18.0102C29.6514 17.8284 29.3037 17.6896 28.9509 17.57C29.3159 17.3844 29.6468 17.1386 29.9645 16.882C30.1905 16.6834 30.4247 16.4893 30.6156 16.2554C30.5987 16.2455 30.5651 16.2255 30.5485 16.2156Z" fill="#68913E"/>
<path d="M27.5922 18.0449C27.7479 18.0551 27.8983 18.0984 28.0507 18.1299C28.4659 18.2276 28.8773 18.3518 29.2657 18.5299C29.2634 18.538 29.2587 18.5546 29.2564 18.5627C28.6443 18.9694 27.9546 19.2522 27.2453 19.4419C27.1058 19.4776 26.9679 19.5233 26.8234 19.5347C26.5308 19.1608 26.1877 18.8278 25.8207 18.527C26.4756 18.4429 27.1341 18.3254 27.754 18.0935C27.6994 18.0775 27.646 18.0609 27.5922 18.0449Z" fill="#68913E"/>
<path d="M26.2739 12.5594C26.8766 12.2592 27.5239 12.0538 28.1833 11.9194C28.2154 12.9452 27.9345 13.9765 27.3963 14.8506C27.1773 15.1942 26.9373 15.5296 26.6439 15.8144C26.2645 16.0634 25.8987 16.3346 25.5115 16.5699C26.0891 15.4546 26.3606 14.1847 26.2984 12.9318C26.297 12.8073 26.2654 12.6839 26.2739 12.5594Z" fill="#8EC740"/>
<path d="M16.4659 12.6948C17.0003 13.0113 17.4745 13.4224 17.8903 13.8812C18.6147 14.6887 19.1269 15.6784 19.3885 16.7283C19.4446 16.9194 19.4493 17.1257 19.418 17.3206C18.9012 16.4551 18.163 15.7267 17.3145 15.183C17.1702 15.0919 17.0207 15.0105 16.8756 14.9212C16.637 14.2035 16.4612 13.4547 16.4659 12.6948Z" fill="#8EC740"/>
<path d="M24.7596 13.6166C25.0005 13.4028 25.2394 13.1803 25.5171 13.0142C25.5422 13.5137 25.4952 14.0152 25.4044 14.5065C25.1947 15.596 24.6939 16.6241 23.9835 17.477C23.5262 17.2952 23.0436 17.1829 22.5574 17.1113C23.0532 15.8203 23.7499 14.5795 24.7596 13.6166Z" fill="#8EC740"/>
<path d="M20.3566 16.3841C20.6696 15.3286 21.2513 14.3526 22.0408 13.582C22.049 13.6649 22.007 13.7394 21.9801 13.815C21.5772 14.8612 20.9815 15.8244 20.2967 16.7102C20.2897 16.7029 20.2751 16.6884 20.2678 16.6808C20.2967 16.5816 20.3277 16.4833 20.3566 16.3841Z" fill="#8EC740"/>
<path d="M28.4093 16.0977C29.1206 15.9834 29.8521 16.0393 30.5485 16.2155C30.5652 16.2254 30.5987 16.2455 30.6157 16.2554C30.4247 16.4893 30.1905 16.6833 29.9645 16.882C29.6468 17.1386 29.316 17.3844 28.951 17.57C28.1249 17.2922 27.2486 17.1738 26.3785 17.2017C26.2406 17.2163 26.1022 17.2218 25.9641 17.2267C26.3329 16.9635 26.7134 16.7153 27.0886 16.4611C27.5067 16.274 27.9576 16.1673 28.4093 16.0977Z" fill="#8EC740"/>
<path d="M25.2629 18.1227C26.0259 17.9554 26.8193 17.9362 27.5922 18.0447C27.646 18.0607 27.6994 18.0773 27.754 18.0933C27.1341 18.3251 26.4756 18.4427 25.8207 18.5267C25.642 18.3825 25.4562 18.2469 25.2629 18.1227Z" fill="#8EC740"/>
<path d="M9.51603 13.584C9.70028 13.4435 9.94906 13.3993 10.1724 13.4557C10.3666 13.5084 10.5366 13.6253 10.6767 13.7667C10.9182 14.0134 11.0995 14.3119 11.2514 14.6194C11.3632 14.5923 11.4678 14.5431 11.5767 14.5071C12.9791 14.0265 14.5422 14.0279 15.9409 14.5219C16.0866 14.5798 16.2349 14.6307 16.3795 14.6924C16.5474 14.7628 16.7054 14.8556 16.8756 14.921C17.0207 15.0103 17.1702 15.0918 17.3145 15.1828C18.163 15.7266 18.9012 16.455 19.418 17.3204C19.4414 17.3586 19.47 17.4252 19.5261 17.3914C19.7541 17.3123 19.9871 17.2483 20.2237 17.1983C20.7093 17.088 21.208 17.0429 21.7056 17.0429C21.9897 17.0644 22.2744 17.0755 22.5573 17.1113C23.0435 17.1828 23.5262 17.2951 23.9835 17.477C24.4323 17.6454 24.8571 17.8697 25.263 18.1228C25.4563 18.247 25.642 18.3826 25.8207 18.5268C26.1878 18.8276 26.5309 19.1607 26.8235 19.5346C27.0007 19.7554 27.163 19.9875 27.314 20.2269C28.169 21.602 28.4829 23.2966 28.1862 24.8858C27.9912 25.9555 27.5257 26.9743 26.8439 27.8231C26.1454 28.6985 25.223 29.3952 24.1864 29.8246C23.3618 30.1679 22.4665 30.3401 21.5736 30.3343C21.2223 31.5241 20.5247 32.6092 19.5903 33.4281C18.538 34.3607 17.1807 34.946 15.7774 35.0671C15.6042 35.0941 15.4276 35.0729 15.2544 35.0976C14.9233 35.0863 14.5887 35.0807 14.2593 35.031C12.9155 34.8477 11.6359 34.2386 10.6443 33.3172C9.91315 32.6426 9.33732 31.8016 8.97262 30.878C8.31649 29.2274 8.36496 27.3117 9.1119 25.6989C9.12124 25.6658 9.15365 25.6326 9.13906 25.5971C8.33255 24.8306 7.72198 23.8612 7.38384 22.8026C7.07549 21.8269 6.98994 20.7799 7.15229 19.7693C7.15959 19.7271 7.15842 19.685 7.15521 19.6431C6.82408 19.5799 6.50171 19.4642 6.21146 19.2925C5.98224 19.1517 5.76938 18.9542 5.68265 18.6932C5.53519 18.3279 5.71273 17.8912 6.02575 17.6704C6.2906 17.465 6.6299 17.4057 6.9254 17.2596C6.99724 17.2256 7.07053 17.1727 7.086 17.0898C7.1701 16.7092 7.19842 16.3162 7.3199 15.9442C7.4072 15.6818 7.54882 15.4237 7.78067 15.2617C7.95441 15.1331 8.17487 15.0871 8.38745 15.0845C8.54425 15.1066 8.70222 15.0857 8.85786 15.0662C8.9367 15.0511 9.02693 15.0199 9.05817 14.9388C9.14168 14.7238 9.07832 14.4896 9.12708 14.2688C9.17556 14.0073 9.30082 13.749 9.51603 13.584ZM9.8895 14.5012C9.89417 14.7273 9.87957 14.9577 9.80511 15.1727C9.72276 15.4086 9.5537 15.6198 9.32272 15.7245C9.03423 15.8659 8.70544 15.872 8.39066 15.8639C8.22948 15.849 8.12903 15.9988 8.08289 16.1321C7.95237 16.5239 7.92901 16.9408 7.8271 17.3396C7.76841 17.5695 7.60255 17.7588 7.40458 17.8839C7.14995 18.0547 6.84043 18.1082 6.57004 18.247C6.51281 18.2764 6.45704 18.3139 6.42375 18.3703C6.39455 18.4631 6.48448 18.528 6.54639 18.5798C6.78232 18.7503 7.06907 18.8399 7.35348 18.887C7.84258 17.23 9.01875 15.7888 10.5424 14.9664C10.4644 14.773 10.3485 14.5932 10.2197 14.4285C10.1479 14.3468 10.0758 14.2499 9.96717 14.2176C9.92045 14.3052 9.88424 14.4003 9.8895 14.5012ZM10.9711 15.6189C9.87723 16.199 8.97729 17.1331 8.43884 18.245C7.87586 19.4031 7.70271 20.7503 7.98303 22.0087C8.20436 23.0767 8.74486 24.0722 9.50201 24.8573C9.51515 24.8658 9.54172 24.8829 9.55516 24.8914C10.5018 23.3917 12.078 22.3008 13.8219 21.9491C14.2847 21.8516 14.7571 21.8135 15.2293 21.8051C15.3841 21.3277 15.5704 20.8588 15.8238 20.4242C16.3488 19.4991 17.1019 18.7049 17.994 18.1231C18.0789 18.0658 18.1659 18.0111 18.2565 17.9631C18.3995 17.8764 18.5473 17.7975 18.6991 17.7268C18.7432 17.7158 18.7207 17.6663 18.7029 17.6431C18.2422 16.9266 17.6263 16.3095 16.906 15.8516C16.0489 15.3001 15.0442 14.9862 14.0268 14.9303C12.9713 14.8806 11.902 15.1194 10.9711 15.6189ZM20.3203 17.9741C19.2075 18.2205 18.1794 18.8108 17.3881 19.6256C16.7827 20.261 16.3036 21.0249 16.0396 21.8627C16.2145 21.8938 16.3909 21.9183 16.5649 21.9561C16.8738 22.007 17.1702 22.112 17.4669 22.2083C18.0994 22.448 18.7026 22.7706 19.2376 23.1855C20.6728 24.2755 21.6343 25.9677 21.8078 27.7597L21.813 27.7591C21.8481 28.1487 21.8539 28.5408 21.8305 28.9315C21.8119 29.1375 21.7803 29.3417 21.7602 29.5474C21.9091 29.5668 22.0568 29.5273 22.2058 29.5282C22.621 29.4906 23.0286 29.3943 23.4269 29.2739C24.5467 28.9143 25.5524 28.2109 26.2724 27.2838C26.9878 26.3762 27.4171 25.2518 27.5018 24.1018C27.507 23.7225 27.5225 23.3405 27.4705 22.9638C27.3505 22.0521 27.0211 21.1657 26.4979 20.4073C26.431 20.3156 26.3793 20.208 26.2853 20.1405C26.2631 20.0759 26.2155 20.0244 26.174 19.9718C25.5311 19.1974 24.6919 18.5821 23.7484 18.2226C22.6654 17.801 21.453 17.7085 20.3203 17.9741ZM12.5657 23.1986C11.716 23.6195 10.9708 24.2482 10.4145 25.0141C9.75751 25.9139 9.35981 27.0042 9.3052 28.117C9.27776 28.4506 9.28447 28.7913 9.34784 29.1206C9.33353 29.2367 9.36623 29.3513 9.37791 29.4665C9.47894 29.9872 9.63575 30.4998 9.87022 30.9769C10.5812 32.4716 11.9574 33.6378 13.5567 34.0855C13.9941 34.2121 14.4467 34.297 14.9031 34.3017C15.0395 34.3034 15.175 34.3328 15.3116 34.3153C15.467 34.2964 15.6241 34.3069 15.7794 34.2863C16.9419 34.1673 18.0652 33.6928 18.9581 32.9411C20.0584 32.0253 20.8106 30.6976 21.0045 29.2806C21.1151 28.5257 21.0667 27.7507 20.8874 27.01C20.848 26.8916 20.8307 26.7645 20.77 26.6543C20.6917 26.3363 20.5466 26.0384 20.4003 25.7466C19.9168 24.8247 19.185 24.0335 18.2994 23.4822C17.4044 22.9172 16.3517 22.6098 15.2935 22.5868C14.3533 22.5714 13.4072 22.7785 12.5657 23.1986Z" fill="#1A194E"/>
<path d="M22.8029 21.2079C22.9775 21.025 23.2348 20.9298 23.4868 20.9461C23.7817 20.9455 24.0679 21.0916 24.364 21.0223C24.6741 20.9595 25.0163 20.8821 25.3138 21.0322C25.5784 21.1562 25.7378 21.4189 25.8342 21.6833C25.9253 21.9015 25.9545 22.1493 26.1043 22.3399C26.2853 22.5842 26.4956 22.8234 26.5633 23.1285C26.6567 23.477 26.5204 23.8421 26.3055 24.1179C26.189 24.2852 26.038 24.4347 25.972 24.6317C25.9118 24.8059 25.8683 24.9869 25.786 25.153C25.7177 25.3083 25.6236 25.4497 25.5042 25.5704C25.3273 25.7214 25.0904 25.793 24.8589 25.7778C24.573 25.7746 24.2965 25.6368 24.0092 25.6984C23.7043 25.7601 23.372 25.8401 23.0748 25.7057C22.8406 25.6123 22.6809 25.4005 22.5798 25.1783C22.4528 24.9028 22.4207 24.5828 22.2233 24.3416C22.0028 24.0615 21.7599 23.7493 21.7698 23.3741C21.7511 22.9967 21.9915 22.6782 22.214 22.3972C22.3708 22.2113 22.4277 21.9713 22.503 21.7464C22.5661 21.5501 22.6607 21.3598 22.8029 21.2079ZM23.3837 21.7313C23.3288 21.7778 23.3031 21.8479 23.2757 21.9125C23.1904 22.1301 23.1376 22.3599 23.0316 22.5694C22.9232 22.7896 22.7463 22.9647 22.6163 23.171C22.5792 23.2327 22.5433 23.301 22.5445 23.3746C22.5638 23.493 22.6368 23.5919 22.7069 23.6859C22.845 23.8727 23.0021 24.0513 23.0838 24.2721C23.1697 24.4734 23.2167 24.6893 23.309 24.888C23.3361 24.9339 23.3618 25.0064 23.4287 24.9988C23.6375 25.0034 23.8363 24.9249 24.0436 24.9101C24.3091 24.8766 24.5681 24.9584 24.8282 24.9953C24.8898 24.9959 24.9777 25.0209 25.0131 24.9519C25.1369 24.7535 25.169 24.5153 25.2621 24.3029C25.3515 24.0623 25.5179 23.8634 25.6712 23.6615C25.7451 23.5547 25.8447 23.4285 25.7983 23.2909C25.7069 23.0581 25.5118 22.8888 25.3868 22.6756C25.2516 22.4586 25.1883 22.209 25.1074 21.9693C25.0729 21.8846 25.0443 21.7842 24.9649 21.7307C24.8113 21.7103 24.6615 21.7595 24.5117 21.7851C24.2974 21.8299 24.0737 21.8305 23.8588 21.7883C23.7017 21.763 23.5449 21.7074 23.3837 21.7313Z" fill="#1A194E"/>
<path d="M12.6071 25.8059C12.9481 25.7559 13.2796 25.8746 13.6168 25.89C13.9877 25.8635 14.3646 25.7274 14.7349 25.8356C14.9805 25.8979 15.1764 26.082 15.3002 26.2967C15.4596 26.5547 15.4961 26.8698 15.6696 27.12C15.8401 27.3384 16.046 27.5351 16.1637 27.7896C16.2913 28.0616 16.2854 28.3898 16.1493 28.6577C16.0369 28.875 15.8673 29.0545 15.7111 29.2407C15.5607 29.4184 15.5055 29.6494 15.4228 29.8615C15.3084 30.1667 15.0973 30.4645 14.7743 30.5707C14.3848 30.6976 13.9839 30.5509 13.5908 30.5259C13.2218 30.5585 12.8492 30.6821 12.4801 30.5856C12.2018 30.5108 11.9857 30.2903 11.8631 30.0366C11.7191 29.7803 11.6926 29.467 11.4949 29.2401C11.296 29.0053 11.0729 28.7723 10.9844 28.4701C10.9079 28.2115 10.9532 27.9261 11.0931 27.6971C11.2186 27.4635 11.4219 27.2864 11.5717 27.0702C11.7168 26.8264 11.7542 26.5344 11.9095 26.2947C12.05 26.0352 12.3101 25.8408 12.6071 25.8059ZM12.6918 26.5835C12.6088 26.6138 12.5732 26.7045 12.5379 26.7784C12.452 26.985 12.3896 27.2017 12.2841 27.4001C12.1539 27.6549 11.9241 27.8391 11.7731 28.0797C11.7215 28.1527 11.7191 28.2536 11.7685 28.3287C11.8873 28.5251 12.0646 28.6778 12.1933 28.8672C12.3385 29.0708 12.4141 29.3117 12.5005 29.5432C12.5358 29.6314 12.5694 29.7245 12.6345 29.796C12.7 29.8632 12.803 29.8458 12.8874 29.8397C13.0413 29.8149 13.1961 29.7955 13.3496 29.7675C13.6647 29.7251 13.9804 29.7838 14.2908 29.8356C14.3956 29.8478 14.5384 29.872 14.6012 29.762C14.7156 29.5694 14.7691 29.3489 14.8587 29.145C14.9466 28.9224 15.1092 28.7421 15.2622 28.562C15.3393 28.4692 15.4258 28.3779 15.4666 28.2624C15.4932 28.1786 15.4483 28.0963 15.4015 28.0299C15.2614 27.8318 15.0792 27.6651 14.9536 27.4565C14.8167 27.2256 14.7559 26.9608 14.6409 26.72C14.6085 26.6487 14.5518 26.5739 14.4654 26.5739C14.2274 26.5611 13.9996 26.6469 13.7634 26.6565C13.5088 26.6888 13.2545 26.635 13.0045 26.5931C12.9014 26.5783 12.7948 26.5585 12.6918 26.5835Z" fill="#1A194E"/>
<path d="M9.88939 14.5012C9.88414 14.4002 9.92034 14.3051 9.96706 14.2175C10.0757 14.2498 10.1478 14.3467 10.2196 14.4284C10.3484 14.5931 10.4643 14.7729 10.5423 14.9663C9.01865 15.7887 7.84247 17.2299 7.35337 18.8869C7.06896 18.8398 6.78222 18.7502 6.54628 18.5797C6.48438 18.5279 6.39444 18.4631 6.42364 18.3703C6.45693 18.3138 6.5127 18.2763 6.56994 18.2469C6.84033 18.1081 7.14985 18.0546 7.40447 17.8839C7.60245 17.7588 7.7683 17.5694 7.827 17.3396C7.9289 16.9407 7.95226 16.5239 8.08279 16.132C8.12892 15.9988 8.22937 15.8489 8.39056 15.8638C8.70533 15.8719 9.03412 15.8658 9.32262 15.7244C9.55359 15.6197 9.72266 15.4085 9.805 15.1726C9.87946 14.9576 9.89406 14.7272 9.88939 14.5012Z" fill="#656BB1"/>
<path d="M10.971 15.6189C11.9019 15.1194 12.9712 14.8805 14.0268 14.9303C15.0441 14.9861 16.0489 15.3 16.9059 15.8516C17.6263 16.3095 18.2421 16.9265 18.7029 17.643C18.7207 17.6663 18.7432 17.7157 18.6991 17.7268C18.5472 17.7975 18.3995 17.8763 18.2564 17.963C18.043 17.584 17.7504 17.2532 17.4397 16.9501C16.5301 16.0698 15.2941 15.5394 14.0288 15.4722C13.6872 15.4682 13.3435 15.4597 13.0051 15.5165C11.8196 15.6753 10.6977 16.2493 9.87455 17.1133C9.14455 17.8708 8.64728 18.8491 8.47266 19.885C8.28724 20.9198 8.43529 22.0008 8.85139 22.9634C8.84321 22.7586 8.78043 22.5611 8.76028 22.3578C8.69283 21.7856 8.72086 21.2043 8.83124 20.6391C9.04002 19.6381 9.54576 18.7002 10.2711 17.9764C10.7725 17.4705 11.3778 17.0682 12.038 16.7991C11.9772 17.0001 11.9793 17.2287 12.1066 17.405C12.3341 17.7262 12.7128 17.8964 13.0804 18.0049C13.7754 18.1925 14.5238 18.1885 15.2141 17.9822C15.5668 17.8626 15.9365 17.6901 16.1377 17.3614C16.2329 17.2087 16.2235 17.026 16.2057 16.8552C16.8861 17.1403 17.4879 17.5909 17.9939 18.123C17.1018 18.7048 16.3488 19.499 15.8238 20.4241C15.5703 20.8587 15.384 21.3277 15.2293 21.805C14.7571 21.8135 14.2846 21.8516 13.8218 21.949C12.078 22.3008 10.5018 23.3917 9.55511 24.8913C9.54167 24.8829 9.5151 24.8657 9.50196 24.8573C8.74481 24.0721 8.20432 23.0766 7.98298 22.0087C7.70266 20.7502 7.87582 19.403 8.43879 18.2449C8.97724 17.133 9.87718 16.1989 10.971 15.6189ZM13.4816 19.0231C13.3584 19.0466 13.2381 19.097 13.147 19.1845C13.0825 19.252 13.0524 19.3602 13.0977 19.4463C13.1444 19.5313 13.227 19.5924 13.3161 19.629C13.533 19.7189 13.7812 19.7262 14.0069 19.664C14.136 19.6261 14.268 19.5569 14.3331 19.4338C14.3492 19.3524 14.353 19.252 14.2811 19.1947C14.0741 18.994 13.752 18.9719 13.4816 19.0231Z" fill="#656BB1"/>
<path d="M20.3203 17.974C21.4529 17.7084 22.6653 17.8009 23.7484 18.2224C24.6918 18.582 25.531 19.1972 26.174 19.9716C26.2155 20.0243 26.2631 20.0758 26.2852 20.1404C26.3863 20.4484 26.4949 20.7553 26.553 21.0756C26.6862 21.7057 26.6993 22.3588 26.6117 22.9959C26.6073 23.0436 26.5857 23.0867 26.5632 23.1283C26.4955 22.8231 26.2852 22.584 26.1042 22.3396C25.9544 22.1491 25.9252 21.9012 25.8341 21.6831C25.7377 21.4186 25.5783 21.1559 25.3138 21.032C25.0162 20.8819 24.674 20.9593 24.3639 21.0221C24.0678 21.0913 23.7816 20.9453 23.4867 20.9459C23.2347 20.9296 22.9775 21.0247 22.8029 21.2077C22.6607 21.3596 22.566 21.5498 22.503 21.7462C22.4276 21.9711 22.3707 22.2111 22.2139 22.3969C21.9914 22.678 21.7511 22.9965 21.7698 23.3738C21.7598 23.7491 22.0028 24.0612 22.2232 24.3414C22.4206 24.5825 22.4527 24.9025 22.5798 25.178C22.6808 25.4003 22.8405 25.6121 23.0747 25.7055C23.372 25.8399 23.7043 25.7599 24.0091 25.6982C24.2964 25.6365 24.573 25.7744 24.8588 25.7776C25.0904 25.7927 25.3272 25.7212 25.5041 25.5702C25.4802 25.6662 25.409 25.7366 25.3459 25.8087C24.4638 26.8633 23.179 27.574 21.813 27.759L21.8077 27.7596C21.6343 25.9676 20.6727 24.2753 19.2375 23.1853C18.7026 22.7705 18.0993 22.4479 17.4668 22.2081C17.4814 22.2076 17.5106 22.2067 17.5255 22.2061C17.7451 21.6746 18.0424 21.1743 18.4164 20.7361C18.5811 20.5465 18.7484 20.3545 18.9482 20.2009C19.0328 20.3993 19.2145 20.5412 19.4241 20.5892C19.8814 20.6995 20.3579 20.5546 20.76 20.3356C21.1253 20.12 21.4757 19.8108 21.5908 19.3887C21.6398 19.2307 21.6007 19.0681 21.5484 18.9171C22.4291 18.7423 23.353 18.8103 24.2065 19.0835C24.3627 19.1274 24.5087 19.2001 24.6646 19.2444C24.5239 19.1225 24.3543 19.0413 24.1945 18.9476C23.4163 18.5293 22.5339 18.3056 21.6497 18.3015C20.7045 18.3015 19.7573 18.5418 18.9385 19.0157C17.8181 19.6499 16.9462 20.6992 16.5196 21.9097C16.531 21.9213 16.5535 21.9443 16.5649 21.9559C16.3908 21.9181 16.2145 21.8937 16.0396 21.8625C16.3035 21.0247 16.7827 20.2608 17.388 19.6255C18.1793 18.8106 19.2075 18.2204 20.3203 17.974Z" fill="#656BB1"/>
<path d="M12.5656 23.1985C13.4071 22.7784 14.3532 22.5713 15.2934 22.5867C16.3517 22.6097 17.4043 22.9172 18.2993 23.4822C19.1849 24.0334 19.9167 24.8247 20.4002 25.7466C20.5465 26.0384 20.6916 26.3363 20.7699 26.6542C20.8301 27.227 20.8362 27.8088 20.7352 28.3776C20.4934 29.9124 19.5902 31.3245 18.3104 32.2088C17.5535 32.74 16.6658 33.083 15.7487 33.2064C15.3527 33.2651 14.9512 33.2518 14.5523 33.2433C13.6442 33.1819 12.7504 32.9038 11.9705 32.436C10.8758 31.7885 10.0021 30.7755 9.53316 29.5956C9.46395 29.44 9.42483 29.2727 9.34774 29.1206C9.28438 28.7912 9.27766 28.4506 9.30511 28.1169C9.35971 27.0042 9.75742 25.9139 10.4144 25.0141C10.9707 24.2481 11.7159 23.6195 12.5656 23.1985ZM13.3373 23.5043C12.4564 23.828 11.6668 24.393 11.0746 25.1185C10.3791 25.9619 9.96328 27.0269 9.89349 28.1152C9.89378 28.4253 9.87363 28.738 9.9186 29.0464C9.96065 29.4845 10.0818 29.911 10.2226 30.3267C10.2278 30.1704 10.2062 30.0151 10.1957 29.8598C10.1321 28.5047 10.6191 27.1325 11.531 26.1239C12.2905 25.2689 13.337 24.6714 14.4627 24.4555C14.4758 24.6723 14.5833 24.8715 14.743 25.0167C15.0651 25.332 15.4885 25.5226 15.9142 25.6564C16.4722 25.8289 17.0673 25.9016 17.6475 25.8182C17.9226 25.7649 18.2167 25.6861 18.414 25.4743C18.459 25.4315 18.4733 25.3614 18.5233 25.3256C18.5744 25.3492 18.6182 25.3856 18.6634 25.4193C19.4454 26.009 20.0676 26.8163 20.4105 27.7335C20.4175 27.5566 20.3599 27.3864 20.3272 27.2145C20.0998 26.2691 19.6039 25.3894 18.9084 24.7075C18.1787 23.9819 17.2306 23.4752 16.2179 23.2797C15.2613 23.0918 14.2516 23.1636 13.3373 23.5043ZM12.607 25.8059C12.3101 25.8408 12.0499 26.0352 11.9095 26.2947C11.7541 26.5344 11.7167 26.8264 11.5716 27.0702C11.4218 27.2864 11.2186 27.4635 11.093 27.6971C10.9532 27.9261 10.9079 28.2115 10.9844 28.4701C11.0729 28.7723 11.296 29.0054 11.4948 29.2401C11.6925 29.467 11.7191 29.7803 11.863 30.0366C11.9857 30.2903 12.2017 30.5108 12.48 30.5856C12.8491 30.6822 13.2217 30.5585 13.5908 30.5259C13.9838 30.551 14.3847 30.6976 14.7743 30.5707C15.0972 30.4646 15.3083 30.1667 15.4228 29.8615C15.5054 29.6494 15.5606 29.4184 15.711 29.2407C15.8672 29.0545 16.0369 28.875 16.1493 28.6577C16.2854 28.3898 16.2912 28.0616 16.1636 27.7896C16.0459 27.5351 15.8401 27.3384 15.6695 27.12C15.4961 26.8698 15.4596 26.5547 15.3002 26.2967C15.1764 26.082 14.9804 25.8979 14.7348 25.8356C14.3646 25.7274 13.9876 25.8635 13.6168 25.89C13.2795 25.8746 12.9481 25.7559 12.607 25.8059Z" fill="#656BB1"/>
<path d="M13.005 15.5164C13.3434 15.4597 13.6871 15.4681 14.0288 15.4722C15.294 15.5394 16.53 16.0697 17.4396 16.95C17.7503 17.2532 18.0429 17.5839 18.2563 17.963C18.1658 18.011 18.0788 18.0657 17.9938 18.123C17.4878 17.5909 16.886 17.1403 16.2056 16.8552C16.2234 17.026 16.2328 17.2086 16.1376 17.3614C15.9364 17.6901 15.5667 17.8626 15.214 17.9822C14.5237 18.1884 13.7753 18.1925 13.0804 18.0049C12.7127 17.8964 12.334 17.7262 12.1065 17.405C11.9792 17.2287 11.9772 17.0001 12.0379 16.799C11.3777 17.0681 10.7724 17.4705 10.271 17.9764C9.54569 18.7001 9.03995 19.638 8.83117 20.639C8.72079 21.2043 8.69276 21.7855 8.76021 22.3577C8.78036 22.5611 8.84314 22.7586 8.85132 22.9634C8.43522 22.0008 8.28717 20.9198 8.47259 19.885C8.64721 18.8491 9.14448 17.8708 9.87448 17.1132C10.6976 16.2492 11.8195 15.6753 13.005 15.5164Z" fill="#A1A1D0"/>
<path d="M18.9385 19.0159C19.7572 18.542 20.7045 18.3018 21.6497 18.3018C22.5339 18.3058 23.4163 18.5295 24.1945 18.9479C24.3542 19.0415 24.5238 19.1227 24.6646 19.2446C24.5087 19.2004 24.3627 19.1276 24.2064 19.0837C23.3529 18.8106 22.429 18.7425 21.5484 18.9173C21.6006 19.0683 21.6398 19.2309 21.5907 19.3889C21.4756 19.811 21.1252 20.1202 20.76 20.3358C20.3579 20.5548 19.8813 20.6997 19.4241 20.5895C19.2144 20.5415 19.0328 20.3995 18.9481 20.2011C18.7484 20.3547 18.5811 20.5467 18.4164 20.7364C18.0423 21.1745 17.7451 21.6748 17.5255 22.2063C17.5106 22.2069 17.4814 22.2078 17.4668 22.2084C17.1701 22.1121 16.8737 22.0071 16.5648 21.9562C16.5534 21.9445 16.5309 21.9215 16.5195 21.9099C16.9461 20.6994 17.8181 19.6501 18.9385 19.0159Z" fill="#A1A1D0"/>
<path d="M13.4816 19.023C13.752 18.9718 14.074 18.9939 14.2811 19.1946C14.3529 19.2519 14.3491 19.3523 14.333 19.4338C14.2679 19.5568 14.1359 19.626 14.0069 19.6639C13.7812 19.7261 13.533 19.7188 13.316 19.629C13.2269 19.5923 13.1443 19.5312 13.0976 19.4463C13.0523 19.3602 13.0824 19.2519 13.1469 19.1844C13.238 19.0969 13.3583 19.0466 13.4816 19.023Z" fill="#A1A1D0"/>
<path d="M13.3374 23.5043C14.2516 23.1637 15.2614 23.0918 16.218 23.2798C17.2306 23.4753 18.1787 23.982 18.9084 24.7075C19.604 25.3894 20.0998 26.2691 20.3273 27.2146C20.36 27.3865 20.4175 27.5567 20.4105 27.7336C20.0677 26.8163 19.4454 26.0091 18.6635 25.4194C18.6182 25.3857 18.5744 25.3493 18.5233 25.3257C18.4734 25.3615 18.4591 25.4316 18.4141 25.4744C18.2167 25.6862 17.9227 25.765 17.6476 25.8182C17.0674 25.9017 16.4723 25.829 15.9143 25.6565C15.4885 25.5227 15.0651 25.3321 14.7431 25.0168C14.5833 24.8716 14.4759 24.6723 14.4627 24.4556C13.3371 24.6715 12.2906 25.269 11.5311 26.124C10.6192 27.1326 10.1321 28.5048 10.1958 29.8598C10.2063 30.0152 10.2279 30.1705 10.2226 30.3267C10.0819 29.911 9.96069 29.4846 9.91865 29.0465C9.87368 28.7381 9.89383 28.4254 9.89353 28.1153C9.96332 27.027 10.3791 25.9619 11.0747 25.1186C11.6668 24.3931 12.4564 23.8281 13.3374 23.5043Z" fill="#A1A1D0"/>
<path d="M26.2853 20.1406C26.3793 20.2081 26.431 20.3158 26.4978 20.4074C27.0211 21.1658 27.3505 22.0522 27.4705 22.9639C27.5225 23.3406 27.507 23.7226 27.5017 24.1019C27.417 25.2519 26.9878 26.3763 26.2724 27.2839C25.5523 28.211 24.5467 28.9144 23.4269 29.274C23.0286 29.3944 22.6209 29.4907 22.2057 29.5283C22.0568 29.5274 21.9091 29.567 21.7601 29.5475C21.7803 29.3418 21.8118 29.1376 21.8305 28.9316C21.8539 28.5409 21.848 28.1488 21.813 27.7592C23.179 27.5742 24.4638 26.8635 25.3459 25.809C25.409 25.7368 25.4802 25.6664 25.5042 25.5704C25.6236 25.4497 25.7176 25.3083 25.7859 25.153C25.7941 25.1571 25.8105 25.1655 25.8186 25.1696C25.9938 24.8723 26.1565 24.5665 26.2823 24.2451C26.2984 24.2043 26.3022 24.1607 26.3054 24.1179C26.5203 23.8422 26.6567 23.4771 26.5632 23.1286C26.5857 23.087 26.6073 23.0439 26.6117 22.9962C26.6993 22.3591 26.6862 21.706 26.553 21.0759C26.4949 20.7556 26.3863 20.4487 26.2853 20.1406Z" fill="#3C469D"/>
<path d="M23.3837 21.7314C23.5449 21.7076 23.7017 21.7631 23.8588 21.7884C24.0737 21.8306 24.2973 21.83 24.5117 21.7852C24.6615 21.7596 24.8113 21.7105 24.9648 21.7308C25.0443 21.7844 25.0729 21.8847 25.1073 21.9694C25.1882 22.2091 25.2516 22.4587 25.3868 22.6757C25.5118 22.8889 25.7068 23.0582 25.7982 23.291C25.8446 23.4286 25.7451 23.5548 25.6712 23.6616C25.5179 23.8635 25.3515 24.0625 25.2621 24.303C25.169 24.5154 25.1368 24.7537 25.013 24.9521C24.9777 25.021 24.8898 24.996 24.8282 24.9954C24.568 24.9585 24.309 24.8767 24.0436 24.9102C23.8363 24.925 23.6374 25.0036 23.4286 24.9989C23.3618 25.0065 23.3361 24.934 23.3089 24.8881C23.2166 24.6894 23.1696 24.4735 23.0838 24.2722C23.002 24.0514 22.8449 23.8728 22.7068 23.686C22.6367 23.5921 22.5637 23.4932 22.5445 23.3748C22.5433 23.3012 22.5792 23.2328 22.6163 23.1711C22.7462 22.9649 22.9232 22.7897 23.0315 22.5695C23.1375 22.3601 23.1904 22.1302 23.2756 21.9126C23.3031 21.8481 23.3288 21.778 23.3837 21.7314Z" fill="#3C469D"/>
<path d="M12.6918 26.5837C12.7949 26.5587 12.9015 26.5785 13.0045 26.5933C13.2545 26.6352 13.5088 26.689 13.7635 26.6567C13.9997 26.6471 14.2274 26.5613 14.4654 26.5741C14.5519 26.5741 14.6085 26.6489 14.6409 26.7202C14.756 26.961 14.8167 27.2258 14.9536 27.4567C15.0792 27.6653 15.2614 27.832 15.4016 28.0301C15.4483 28.0964 15.4933 28.1788 15.4667 28.2626C15.4258 28.378 15.3394 28.4694 15.2623 28.5622C15.1093 28.7423 14.9466 28.9226 14.8587 29.1452C14.7691 29.3491 14.7157 29.5696 14.6012 29.7622C14.5384 29.8722 14.3956 29.848 14.2908 29.8358C13.9804 29.784 13.6648 29.7252 13.3497 29.7677C13.1961 29.7956 13.0413 29.8151 12.8875 29.8399C12.8031 29.846 12.7 29.8634 12.6346 29.7962C12.5695 29.7247 12.5359 29.6316 12.5006 29.5434C12.4141 29.3119 12.3385 29.071 12.1934 28.8674C12.0646 28.678 11.8874 28.5252 11.7685 28.3289C11.7192 28.2538 11.7215 28.1529 11.7732 28.0799C11.9241 27.8393 12.1539 27.6551 12.2842 27.4003C12.3896 27.2019 12.4521 26.9852 12.5379 26.7786C12.5733 26.7047 12.6089 26.614 12.6918 26.5837Z" fill="#3C469D"/>
<path d="M20.77 26.6543C20.8307 26.7646 20.8479 26.8917 20.8873 27.0101C21.0666 27.7507 21.1151 28.5257 21.0044 29.2806C20.8105 30.6976 20.0584 32.0254 18.9581 32.9411C18.0652 33.6928 16.9418 34.1673 15.7794 34.2863C15.624 34.307 15.4669 34.2965 15.3116 34.3154C15.1749 34.3328 15.0395 34.3035 14.9031 34.3017C14.4467 34.2971 13.9941 34.2121 13.5567 34.0856C11.9574 33.6379 10.5812 32.4716 9.87018 30.9769C9.63571 30.4998 9.4789 29.9872 9.37787 29.4665C9.36619 29.3513 9.33349 29.2367 9.3478 29.1206C9.42488 29.2728 9.46401 29.44 9.53321 29.5957C10.0022 30.7756 10.8758 31.7886 11.9705 32.4361C12.7505 32.9039 13.6443 33.182 14.5524 33.2434C14.9513 33.2518 15.3528 33.2652 15.7487 33.2064C16.6659 33.0831 17.5536 32.7401 18.3104 32.2089C19.5903 31.3246 20.4934 29.9125 20.7352 28.3776C20.8362 27.8089 20.8301 27.2271 20.77 26.6543Z" fill="#3C469D"/>
<path d="M26.3054 24.1177C26.3021 24.1604 26.2983 24.2041 26.2823 24.2448C26.1564 24.5663 25.9938 24.872 25.8186 25.1693C25.8104 25.1652 25.7941 25.1568 25.7859 25.1527C25.8682 24.9866 25.9117 24.8057 25.9719 24.6314C26.0379 24.4345 26.1888 24.2849 26.3054 24.1177Z" fill="#656CB2"/>
</svg>
