<svg width="29" height="28" viewBox="0 0 29 28" fill="none" xmlns="http://www.w3.org/2000/svg">
<path d="M15.0674 1.75C16.8425 1.75024 18.2812 3.18965 18.2812 4.96484V9.65625H22.9727C24.7479 9.65625 26.1873 11.0949 26.1875 12.8701V23.0352C26.1875 24.8105 24.748 26.25 22.9727 26.25H12.8076C11.0324 26.2498 9.59375 24.8104 9.59375 23.0352V18.3438H4.90234C3.12715 18.3438 1.68774 16.905 1.6875 15.1299V4.96484C1.6875 3.1895 3.127 1.75 4.90234 1.75H15.0674ZM18.2812 15.1758L18.2783 15.2139C18.2768 15.2709 18.2739 15.3275 18.2695 15.3838L18.2676 15.4385C18.267 15.445 18.2653 15.4515 18.2646 15.458C18.2572 15.5311 18.2456 15.6032 18.2334 15.6748C18.2275 15.7091 18.2227 15.7434 18.2158 15.7773C18.2033 15.8386 18.1879 15.899 18.1719 15.959C18.1617 15.9971 18.1511 16.0348 18.1396 16.0723C18.1199 16.1367 18.0978 16.2001 18.0742 16.2627C18.0613 16.2971 18.0483 16.3314 18.0342 16.3652C18.0093 16.4248 17.9824 16.4833 17.9541 16.541C17.9402 16.5693 17.9258 16.5972 17.9111 16.625C17.8957 16.6543 17.8796 16.6832 17.8633 16.7119C17.8264 16.777 17.7873 16.8403 17.7461 16.9023C17.7328 16.9225 17.7189 16.9421 17.7051 16.9619C17.6585 17.0289 17.61 17.0941 17.5586 17.1572C17.5487 17.1694 17.5384 17.1813 17.5283 17.1934C17.475 17.2568 17.4193 17.3178 17.3613 17.377C17.345 17.3936 17.3291 17.4105 17.3125 17.4268C17.2557 17.4822 17.1965 17.5348 17.1357 17.5859C17.1195 17.5996 17.1034 17.6136 17.0869 17.627C17.028 17.6747 16.9675 17.7202 16.9053 17.7637C16.8811 17.7806 16.8567 17.7972 16.832 17.8135C16.7741 17.8516 16.7148 17.8875 16.6543 17.9219C16.6211 17.9408 16.5886 17.9608 16.5547 17.9785C16.5279 17.9925 16.5009 18.0062 16.4736 18.0195C16.4151 18.0481 16.3554 18.0746 16.2949 18.0996C16.2627 18.113 16.23 18.1254 16.1973 18.1377C16.1339 18.1615 16.07 18.1843 16.0049 18.2041C15.9726 18.2139 15.9399 18.2226 15.9072 18.2314C15.8406 18.2494 15.7733 18.2656 15.7051 18.2793C15.6788 18.2846 15.6525 18.2893 15.626 18.2939C15.55 18.3073 15.4733 18.3193 15.3955 18.3271C15.3738 18.3294 15.3519 18.3303 15.3301 18.332C15.2565 18.338 15.1823 18.3418 15.1074 18.3428C15.0941 18.3429 15.0807 18.3447 15.0674 18.3447L13.2861 18.3438H11.5049L11.5059 23.0361C11.5059 23.7005 12.003 24.2486 12.6455 24.3291L12.8086 24.3389H22.9736C23.6934 24.3389 24.2764 23.7559 24.2764 23.0361V12.8711C24.2762 12.1515 23.6933 11.5684 22.9736 11.5684L18.2812 11.5674V15.1758ZM4.90234 3.66211C4.1828 3.66224 3.59974 4.2453 3.59961 4.96484V15.1299C3.59961 15.8495 4.18272 16.4335 4.90234 16.4336H10.5098C10.5227 16.4331 10.5357 16.4316 10.5488 16.4316L15.0664 16.4326C15.2993 16.4326 15.518 16.3697 15.708 16.2637C16.062 16.0631 16.3127 15.703 16.3613 15.2803L16.3701 15.1299L16.3691 10.6113C16.3691 10.5982 16.3706 10.5852 16.3711 10.5723V4.96484C16.371 4.24522 15.787 3.66211 15.0674 3.66211H4.90234ZM6.2373 6.6377C6.56904 6.30612 7.08366 6.26941 7.45605 6.52734L7.58887 6.6377L11.5918 10.6416L11.5928 8.25391C11.593 7.77423 11.9465 7.37682 12.4072 7.30859L12.5488 7.29883C13.0284 7.29909 13.4249 7.65259 13.4932 8.11328L13.5039 8.25391V12.9053C13.5152 13.1435 13.4375 13.3838 13.2715 13.5752C13.2692 13.5778 13.2669 13.5804 13.2646 13.583C13.2518 13.5975 13.2394 13.6131 13.2256 13.627C13.17 13.6825 13.1073 13.7266 13.043 13.7656C13.0148 13.7828 12.987 13.8002 12.957 13.8145C12.9527 13.8165 12.9487 13.8193 12.9443 13.8213C12.899 13.842 12.8516 13.8586 12.8027 13.8721C12.7975 13.8735 12.7923 13.8746 12.7871 13.876C12.755 13.8842 12.7227 13.8925 12.6895 13.8975L12.6504 13.8994C12.6351 13.901 12.6198 13.9025 12.6045 13.9033L12.5479 13.9072H7.85059C7.32286 13.9072 6.89466 13.4798 6.89453 12.9521C6.89453 12.4724 7.2482 12.0751 7.70898 12.0068L7.85059 11.9961L10.2422 11.9951L6.2373 7.98926C5.86409 7.61604 5.86409 7.01091 6.2373 6.6377Z" fill="#D2F159"/>
</svg>
