<svg width="34" height="34" viewBox="0 0 34 34" fill="none" xmlns="http://www.w3.org/2000/svg">
<rect width="34" height="34" rx="17" fill="#FBC92C"/>
<path fill-rule="evenodd" clip-rule="evenodd" d="M14.9197 27.5037C16.9845 27.9144 19.1247 27.7036 21.0697 26.898C23.0147 26.0923 24.6772 24.728 25.8468 22.9776C27.0164 21.2271 27.6407 19.1691 27.6407 17.0639H23.1112C23.1112 18.2733 22.7525 19.4555 22.0806 20.4611C21.4087 21.4667 20.4537 22.2504 19.3364 22.7133C18.219 23.1761 16.9895 23.2972 15.8034 23.0612C14.6172 22.8253 13.5276 22.2429 12.6725 21.3877C11.8173 20.5326 11.2349 19.443 10.9989 18.2568C10.763 17.0707 10.8841 15.8412 11.3469 14.7238C11.8097 13.6065 12.5935 12.6515 13.5991 11.9796C14.6047 11.3077 15.7869 10.949 16.9963 10.949V6.4195C14.891 6.4195 12.8331 7.04379 11.0826 8.2134C9.33215 9.38302 7.96784 11.0454 7.16219 12.9905C6.35654 14.9355 6.14575 17.0757 6.55646 19.1405C6.96718 21.2053 7.98096 23.1019 9.4696 24.5906C10.9582 26.0792 12.8549 27.093 14.9197 27.5037Z" fill="#040404"/>
<path d="M25.8534 7.54374C26.0442 7.45659 26.2407 7.65312 26.1536 7.84386L25.2135 9.90121C24.995 10.3794 24.995 10.929 25.2135 11.4072L26.1536 13.4646C26.2407 13.6553 26.0442 13.8518 25.8534 13.7647L23.7961 12.8246C23.3179 12.6061 22.7683 12.6061 22.2901 12.8246L20.2327 13.7647C20.042 13.8518 19.8455 13.6553 19.9326 13.4646L20.8727 11.4072C21.0912 10.929 21.0912 10.3794 20.8727 9.90121L19.9326 7.84386C19.8455 7.65312 20.042 7.45659 20.2327 7.54374L22.2901 8.48384C22.7683 8.70236 23.3179 8.70236 23.7961 8.48384L25.8534 7.54374Z" fill="#040404"/>
</svg>
