<svg width="22" height="26" viewBox="0 0 22 26" fill="none" xmlns="http://www.w3.org/2000/svg">
<path d="M11.0002 13.0002V6.40009M11.0002 13.0002L5.22516 16.3344M11.0002 13.0002L16.7752 16.3344" stroke="#D2F159" stroke-width="2.20003" stroke-linecap="round" stroke-linejoin="round"/>
<path d="M5.50016 8.60012C5.50016 9.81514 4.51515 10.8002 3.30013 10.8002C2.08509 10.8002 1.1001 9.81514 1.1001 8.60012C1.1001 7.3851 2.08509 6.40009 3.30013 6.40009C4.51515 6.40009 5.50016 7.3851 5.50016 8.60012Z" fill="#D2F159" stroke="#D2F159" stroke-width="2.20003" stroke-linecap="round" stroke-linejoin="round"/>
<path d="M5.50016 17.4006C5.50016 18.6156 4.51515 19.6006 3.30013 19.6006C2.08509 19.6006 1.1001 18.6156 1.1001 17.4006C1.1001 16.1856 2.08509 15.2006 3.30013 15.2006C4.51515 15.2006 5.50016 16.1856 5.50016 17.4006Z" fill="#D2F159" stroke="#D2F159" stroke-width="2.20003" stroke-linecap="round" stroke-linejoin="round"/>
<path d="M13.1999 21.8003C13.1999 23.0153 12.2149 24.0003 10.9999 24.0003C9.78489 24.0003 8.79988 23.0153 8.79988 21.8003C8.79988 20.5853 9.78489 19.6003 10.9999 19.6003C12.2149 19.6003 13.1999 20.5853 13.1999 21.8003Z" fill="#D2F159" stroke="#D2F159" stroke-width="2.20003" stroke-linecap="round" stroke-linejoin="round"/>
<path d="M20.9007 17.4006C20.9007 18.6156 19.9157 19.6006 18.7007 19.6006C17.4857 19.6006 16.5007 18.6156 16.5007 17.4006C16.5007 16.1856 17.4857 15.2006 18.7007 15.2006C19.9157 15.2006 20.9007 16.1856 20.9007 17.4006Z" fill="#D2F159" stroke="#D2F159" stroke-width="2.20003" stroke-linecap="round" stroke-linejoin="round"/>
<path d="M20.9007 8.60012C20.9007 9.81514 19.9157 10.8002 18.7007 10.8002C17.4857 10.8002 16.5007 9.81514 16.5007 8.60012C16.5007 7.3851 17.4857 6.40009 18.7007 6.40009C19.9157 6.40009 20.9007 7.3851 20.9007 8.60012Z" fill="#D2F159" stroke="#D2F159" stroke-width="2.20003" stroke-linecap="round" stroke-linejoin="round"/>
<path d="M13.1999 4.2004C13.1999 5.41542 12.2149 6.40043 10.9999 6.40043C9.78489 6.40043 8.79988 5.41542 8.79988 4.2004C8.79988 2.98535 9.78489 2.00037 10.9999 2.00037C12.2149 2.00037 13.1999 2.98535 13.1999 4.2004Z" fill="#D2F159" stroke="#D2F159" stroke-width="2.20003" stroke-linecap="round" stroke-linejoin="round"/>
</svg>
