<svg width="48" height="48" viewBox="0 0 48 48" fill="none" xmlns="http://www.w3.org/2000/svg">
<rect width="48" height="48" rx="24" fill="#1E1F24"/>
<path d="M24.0002 24.0002V17.4001M24.0002 24.0002L18.2252 27.3344M24.0002 24.0002L29.7752 27.3344" stroke="#D2F159" stroke-width="2.20003" stroke-linecap="round" stroke-linejoin="round"/>
<path d="M18.5002 19.6001C18.5002 20.8151 17.5152 21.8002 16.3001 21.8002C15.0851 21.8002 14.1001 20.8151 14.1001 19.6001C14.1001 18.3851 15.0851 17.4001 16.3001 17.4001C17.5152 17.4001 18.5002 18.3851 18.5002 19.6001Z" fill="#D2F159" stroke="#D2F159" stroke-width="2.20003" stroke-linecap="round" stroke-linejoin="round"/>
<path d="M18.5002 28.4006C18.5002 29.6156 17.5152 30.6006 16.3001 30.6006C15.0851 30.6006 14.1001 29.6156 14.1001 28.4006C14.1001 27.1856 15.0851 26.2006 16.3001 26.2006C17.5152 26.2006 18.5002 27.1856 18.5002 28.4006Z" fill="#D2F159" stroke="#D2F159" stroke-width="2.20003" stroke-linecap="round" stroke-linejoin="round"/>
<path d="M26.1999 32.8003C26.1999 34.0153 25.2149 35.0003 23.9999 35.0003C22.7849 35.0003 21.7999 34.0153 21.7999 32.8003C21.7999 31.5853 22.7849 30.6003 23.9999 30.6003C25.2149 30.6003 26.1999 31.5853 26.1999 32.8003Z" fill="#D2F159" stroke="#D2F159" stroke-width="2.20003" stroke-linecap="round" stroke-linejoin="round"/>
<path d="M33.9007 28.4006C33.9007 29.6156 32.9157 30.6006 31.7007 30.6006C30.4857 30.6006 29.5007 29.6156 29.5007 28.4006C29.5007 27.1856 30.4857 26.2006 31.7007 26.2006C32.9157 26.2006 33.9007 27.1856 33.9007 28.4006Z" fill="#D2F159" stroke="#D2F159" stroke-width="2.20003" stroke-linecap="round" stroke-linejoin="round"/>
<path d="M33.9007 19.6001C33.9007 20.8151 32.9157 21.8002 31.7007 21.8002C30.4857 21.8002 29.5007 20.8151 29.5007 19.6001C29.5007 18.3851 30.4857 17.4001 31.7007 17.4001C32.9157 17.4001 33.9007 18.3851 33.9007 19.6001Z" fill="#D2F159" stroke="#D2F159" stroke-width="2.20003" stroke-linecap="round" stroke-linejoin="round"/>
<path d="M26.1999 15.2004C26.1999 16.4154 25.2149 17.4004 23.9999 17.4004C22.7849 17.4004 21.7999 16.4154 21.7999 15.2004C21.7999 13.9854 22.7849 13.0004 23.9999 13.0004C25.2149 13.0004 26.1999 13.9854 26.1999 15.2004Z" fill="#D2F159" stroke="#D2F159" stroke-width="2.20003" stroke-linecap="round" stroke-linejoin="round"/>
</svg>
