<svg width="28" height="28" viewBox="0 0 28 28" fill="none" xmlns="http://www.w3.org/2000/svg">
<path d="M13.4541 2.1464C13.7285 1.95123 14.0977 1.95117 14.3721 2.1464L26.3936 10.7323C26.7573 10.8643 26.9998 11.2016 27 11.5917V11.6083L26.9951 11.6444C26.9845 11.8608 26.894 12.0776 26.7305 12.2411C26.398 12.5787 25.8703 12.6102 25.501 12.3095L23.5596 10.9237V25.3866C23.5594 25.8191 23.2059 26.1775 22.7734 26.1776H5.33203C4.89435 26.1774 4.5412 25.8243 4.54102 25.3866V10.9374L2.63574 12.2939C2.61464 12.3097 2.58789 12.3253 2.56152 12.3359C2.19743 12.6048 1.62245 12.5738 1.29004 12.2362C1.10536 12.0516 1.00002 11.8028 1 11.539C1.00014 11.2225 1.15874 10.9218 1.42773 10.7372L13.4541 2.1464ZM10.251 16.4989C9.7302 16.4991 9.30379 16.9203 9.30371 17.4433V23.0194C9.30371 23.5425 9.73015 23.9636 10.251 23.9638C10.7717 23.9635 11.1992 23.5424 11.1992 23.0194V17.4433C11.1991 16.9204 10.7717 16.4992 10.251 16.4989ZM13.9199 16.4989C13.399 16.4989 12.9718 16.9202 12.9717 17.4433V23.0194C12.9717 23.5425 13.399 23.9638 13.9199 23.9638C14.4404 23.9633 14.8672 23.5422 14.8672 23.0194V17.4433C14.8671 16.9206 14.4404 16.4995 13.9199 16.4989ZM17.9111 15.6776C17.3903 15.6778 16.9639 16.099 16.9639 16.622V23.0194C16.9639 23.5425 17.3903 23.9637 17.9111 23.9638C18.4319 23.9635 18.8594 23.5424 18.8594 23.0194V16.622C18.8593 16.0991 18.4318 15.6779 17.9111 15.6776ZM19.6084 10.2607C19.2695 9.86559 18.6703 9.81825 18.2744 10.1562L15.0391 12.9042L13.4434 11.1034C13.1502 10.7724 12.6674 10.6915 12.2842 10.8964L12.209 10.9413L8.44141 13.4374C8.00248 13.7259 7.88594 14.315 8.17871 14.7499V14.7509C8.36195 15.022 8.66243 15.1688 8.96582 15.1689C9.14269 15.1688 9.32634 15.1186 9.48828 15.0097L9.48926 15.0107L12.5684 12.9696L14.2334 14.8505L14.3018 14.9189C14.6496 15.2376 15.1885 15.2567 15.5576 14.9442L15.5586 14.9433L19.502 11.5927C19.9006 11.2543 19.9483 10.6573 19.6084 10.2607Z" fill="#D2F159"/>
</svg>
