<svg width="48" height="48" viewBox="0 0 48 48" fill="none" xmlns="http://www.w3.org/2000/svg">
<rect width="48" height="48" rx="24" fill="#1E1F24"/>
<path d="M23.4541 12.1464C23.7285 11.9512 24.0977 11.9512 24.3721 12.1464L36.3936 20.7323C36.7573 20.8643 36.9998 21.2016 37 21.5917V21.6083L36.9951 21.6444C36.9845 21.8608 36.894 22.0776 36.7305 22.2411C36.398 22.5787 35.8703 22.6102 35.501 22.3095L33.5596 20.9237V35.3866C33.5594 35.8191 33.2059 36.1775 32.7734 36.1776H15.332C14.8943 36.1774 14.5412 35.8243 14.541 35.3866V20.9374L12.6357 22.2939C12.6146 22.3097 12.5879 22.3253 12.5615 22.3359C12.1974 22.6048 11.6225 22.5738 11.29 22.2362C11.1054 22.0516 11 21.8028 11 21.539C11.0001 21.2225 11.1587 20.9218 11.4277 20.7372L23.4541 12.1464ZM20.251 26.4989C19.7302 26.4991 19.3038 26.9203 19.3037 27.4433V33.0194C19.3037 33.5425 19.7301 33.9636 20.251 33.9638C20.7717 33.9635 21.1992 33.5424 21.1992 33.0194V27.4433C21.1991 26.9204 20.7717 26.4992 20.251 26.4989ZM23.9199 26.4989C23.399 26.4989 22.9718 26.9202 22.9717 27.4433V33.0194C22.9717 33.5425 23.399 33.9638 23.9199 33.9638C24.4404 33.9633 24.8672 33.5422 24.8672 33.0194V27.4433C24.8671 26.9206 24.4404 26.4995 23.9199 26.4989ZM27.9111 25.6776C27.3903 25.6778 26.9639 26.099 26.9639 26.622V33.0194C26.9639 33.5425 27.3903 33.9637 27.9111 33.9638C28.4319 33.9635 28.8594 33.5424 28.8594 33.0194V26.622C28.8593 26.0991 28.4318 25.6779 27.9111 25.6776ZM29.6084 20.2607C29.2695 19.8656 28.6703 19.8182 28.2744 20.1562L25.0391 22.9042L23.4434 21.1034C23.1502 20.7724 22.6674 20.6915 22.2842 20.8964L22.209 20.9413L18.4414 23.4374C18.0025 23.7259 17.8859 24.315 18.1787 24.7499V24.7509C18.3619 25.022 18.6624 25.1688 18.9658 25.1689C19.1427 25.1688 19.3263 25.1186 19.4883 25.0097L19.4893 25.0107L22.5684 22.9696L24.2334 24.8505L24.3018 24.9189C24.6496 25.2376 25.1885 25.2567 25.5576 24.9442L25.5586 24.9433L29.502 21.5927C29.9006 21.2543 29.9483 20.6573 29.6084 20.2607Z" fill="#D2F159"/>
</svg>
