<svg width="40" height="40" viewBox="0 0 40 40" fill="none" xmlns="http://www.w3.org/2000/svg">
<circle cx="20" cy="20" r="20" fill="black"/>
<path d="M15.19 27C14.706 27 14.332 26.8753 14.068 26.626C13.8187 26.362 13.694 25.988 13.694 25.504V12.986C13.694 12.502 13.8187 12.1353 14.068 11.886C14.332 11.622 14.706 11.49 15.19 11.49H19.458C22.054 11.49 24.056 12.1573 25.464 13.492C26.8867 14.8267 27.598 16.7407 27.598 19.234C27.598 20.4807 27.4147 21.588 27.048 22.556C26.696 23.5093 26.168 24.316 25.464 24.976C24.7747 25.636 23.924 26.142 22.912 26.494C21.9147 26.8313 20.7633 27 19.458 27H15.19ZM16.51 24.668H19.282C20.1913 24.668 20.976 24.558 21.636 24.338C22.3107 24.1033 22.868 23.766 23.308 23.326C23.7627 22.8713 24.1 22.3067 24.32 21.632C24.54 20.9427 24.65 20.1433 24.65 19.234C24.65 17.4153 24.2027 16.0587 23.308 15.164C22.4133 14.2693 21.0713 13.822 19.282 13.822H16.51V24.668Z" fill="#4D68FF"/>
</svg>
