<svg width="34" height="34" viewBox="0 0 34 34" fill="none" xmlns="http://www.w3.org/2000/svg">
<g clip-path="url(#clip0_472_961)">
<path fill-rule="evenodd" clip-rule="evenodd" d="M17 34C26.3886 34 34 26.3886 34 17C34 7.61136 26.3886 0 17 0C7.61136 0 0 7.61136 0 17C0 26.3886 7.61136 34 17 34Z" fill="#DE5833"/>
<path fill-rule="evenodd" clip-rule="evenodd" d="M19.3908 29.6836C19.3908 29.5506 19.4233 29.5205 19.0014 28.679C17.8794 26.4319 16.7512 23.2645 17.2643 21.2222C17.3578 20.8505 16.2072 7.47692 15.3943 7.04651C14.4902 6.5651 13.3782 5.80088 12.3613 5.63088C11.8451 5.54819 11.1682 5.5876 10.6397 5.65869C10.5454 5.67106 10.5415 5.84028 10.632 5.87042C10.9789 5.98788 11.4008 6.19265 11.6489 6.50174C11.696 6.55969 11.6334 6.65165 11.5577 6.65474C11.3235 6.66324 10.8986 6.76138 10.3376 7.23738C10.2734 7.29301 10.3267 7.39501 10.4102 7.37878C11.6156 7.14001 12.8458 7.25747 13.5706 7.9166C13.6185 7.95988 13.5938 8.03638 13.532 8.05338C7.23891 9.76342 8.48455 15.2382 10.1598 21.9571C11.5306 27.4542 12.1164 29.5298 12.3397 30.2863C12.3891 30.4524 12.5089 30.5876 12.672 30.6456C14.9044 31.4454 19.3908 31.4461 19.3908 30.0158V29.6836Z" fill="#DDDDDD"/>
<path fill-rule="evenodd" clip-rule="evenodd" d="M32.6054 17C32.6054 25.619 25.6191 32.6052 17.0001 32.6052C8.38112 32.6052 1.3949 25.619 1.3949 17C1.3949 8.381 8.38112 1.39478 17.0001 1.39478C25.6191 1.39478 32.6054 8.381 32.6054 17ZM13.3583 30.8086C12.9271 29.4765 11.7216 25.6159 10.5316 20.7361L10.4126 20.2509L10.4119 20.2462C8.97072 14.3611 7.79385 9.55478 14.2446 8.04487C14.3025 8.03096 14.3319 7.95987 14.2925 7.9135C13.553 7.03568 12.1667 6.74823 10.4134 7.35328C10.3415 7.378 10.2789 7.30537 10.3238 7.24355C10.6676 6.76987 11.3391 6.40591 11.6706 6.24596C11.7394 6.21273 11.7355 6.11228 11.6629 6.08987C11.3348 5.98682 10.9999 5.90678 10.6607 5.85032C10.5625 5.83487 10.554 5.66641 10.6529 5.65328C13.1373 5.31868 15.7329 6.06514 17.0349 7.70564C17.0473 7.72109 17.065 7.73191 17.0844 7.73655C21.8529 8.75964 22.1944 16.2984 21.645 16.6415C21.5368 16.7095 21.1891 16.67 20.7316 16.619C18.8763 16.4112 15.202 16.0009 18.2342 21.6518C18.2651 21.7082 18.2249 21.7816 18.1623 21.7909C16.4577 22.0567 18.6283 27.3785 20.2371 30.9091C26.5634 29.4425 31.2778 23.7714 31.2778 17C31.2778 9.11509 24.885 2.72232 17.0001 2.72232C9.11522 2.72232 2.72244 9.11509 2.72244 17C2.72244 23.6269 7.23749 29.1983 13.3583 30.8086Z" fill="white"/>
<path d="M22.3867 24.0914C22.0235 23.9237 20.628 24.9244 19.7015 25.6932C19.5083 25.4189 19.1428 25.2195 18.3198 25.3633C17.5989 25.4884 17.2009 25.6623 17.0232 25.9614C15.8857 25.5302 13.9717 24.8641 13.5096 25.5078C13.0042 26.2109 13.6355 29.5344 14.307 29.9664C14.6571 30.1913 16.3339 29.1141 17.2094 28.3707C17.3508 28.5701 17.578 28.6837 18.0455 28.6729C18.7525 28.6574 19.8993 28.492 20.077 28.1629C20.0887 28.1404 20.098 28.1169 20.1048 28.0925C21.005 28.4287 22.5884 28.7849 22.9423 28.7316C23.8641 28.5925 22.814 24.2892 22.3867 24.0914Z" fill="#3CA82B"/>
<path d="M19.7862 25.7914C19.8249 25.8594 19.8558 25.9305 19.8813 26.0039C20.0096 26.3633 20.219 27.5046 20.0606 27.7858C19.9022 28.0679 18.876 28.2039 18.2431 28.2155C17.6095 28.2263 17.4673 27.9945 17.339 27.6359C17.2362 27.3485 17.1852 26.6739 17.1868 26.2875C17.1605 25.7149 17.3699 25.5133 18.3382 25.3564C19.0545 25.2405 19.4331 25.3757 19.6518 25.606C20.6679 24.8472 22.3641 23.7762 22.5302 23.9717C23.3555 24.9476 23.4598 27.2712 23.2805 28.2062C23.2226 28.5114 20.491 27.9033 20.491 27.5733C20.491 26.2056 20.1355 25.8301 19.7862 25.7914ZM13.8015 25.3641C14.0256 25.0102 15.8399 25.4499 16.836 25.8934C16.836 25.8934 16.6312 26.8207 16.9573 27.9133C17.0523 28.2333 14.6662 29.6551 14.354 29.4109C13.9939 29.1281 13.3317 26.1083 13.8015 25.3641Z" fill="#4CBA3C"/>
<path fill-rule="evenodd" clip-rule="evenodd" d="M14.681 18.1707C14.8278 17.5325 15.5117 16.3293 17.9535 16.3587C19.1883 16.3533 20.7214 16.3579 21.7383 16.2428C22.8957 16.1145 24.0319 15.8382 25.119 15.4206C26.1761 15.0172 26.5509 15.1069 26.683 15.348C26.8275 15.6138 26.6567 16.0712 26.2874 16.4932C25.5819 17.2976 24.3138 17.9219 22.0737 18.1066C19.8328 18.2921 18.3491 17.6909 17.7101 18.6692C17.435 19.0911 17.6483 20.0856 19.8142 20.3993C22.7413 20.8212 25.146 19.8893 25.4428 20.4526C25.7403 21.0152 24.0287 22.1603 21.0969 22.1835C18.1644 22.2075 16.3331 21.1573 15.6832 20.635C14.8595 19.9727 14.4909 19.0068 14.681 18.1707Z" fill="#FFCC33"/>
<g opacity="0.8">
<path d="M18.4148 11.1898C18.5787 10.9224 18.9411 10.7153 19.5353 10.7153C20.128 10.7153 20.4077 10.9518 20.6009 11.2145C20.6395 11.2686 20.5808 11.332 20.5197 11.3049L20.4749 11.2856C20.1816 11.1437 19.8603 11.0692 19.5345 11.0677C19.0462 11.0615 18.7386 11.1836 18.5447 11.2887C18.479 11.3242 18.3762 11.2532 18.4148 11.1898ZM11.7331 11.5329C12.3095 11.2918 12.7623 11.3227 13.0822 11.3984C13.1495 11.4139 13.1966 11.342 13.1425 11.298C12.8937 11.0978 12.3381 10.8498 11.6125 11.1202C10.965 11.3613 10.6605 11.8621 10.6582 12.192C10.6582 12.2693 10.8182 12.2762 10.8591 12.2106C10.9704 12.0328 11.1566 11.7732 11.7323 11.5329H11.7331Z" fill="#14307E"/>
<path fill-rule="evenodd" clip-rule="evenodd" d="M20.0391 14.8535C19.5291 14.8535 19.1156 14.4416 19.1156 13.934C19.1156 13.427 19.5291 13.0144 20.0391 13.0144C20.5483 13.0144 20.9617 13.427 20.9617 13.934C20.9617 14.4416 20.5483 14.8535 20.0391 14.8535ZM20.6881 13.6295C20.6881 13.5662 20.663 13.5054 20.6182 13.4607C20.5734 13.4159 20.5127 13.3907 20.4494 13.3907C20.386 13.3907 20.3253 13.4159 20.2805 13.4607C20.2358 13.5054 20.2106 13.5662 20.2106 13.6295C20.2106 13.6929 20.2358 13.7538 20.2807 13.7986C20.3255 13.8435 20.3863 13.8687 20.4498 13.8687C20.5132 13.8687 20.574 13.8435 20.6189 13.7986C20.6637 13.7538 20.6881 13.6929 20.6881 13.6295ZM13.9245 14.5707C13.9243 14.7117 13.8963 14.8514 13.8421 14.9816C13.7879 15.1118 13.7087 15.2301 13.6088 15.3297C13.5089 15.4293 13.3904 15.5083 13.26 15.5621C13.1296 15.6158 12.9899 15.6434 12.8488 15.6432C12.7078 15.6434 12.5681 15.6158 12.4377 15.5621C12.3073 15.5083 12.1888 15.4293 12.0889 15.3297C11.989 15.2301 11.9097 15.1118 11.8555 14.9816C11.8014 14.8514 11.7734 14.7117 11.7732 14.5707C11.7734 14.4296 11.8014 14.29 11.8555 14.1598C11.9097 14.0295 11.989 13.9112 12.0889 13.8116C12.1888 13.712 12.3073 13.6331 12.4377 13.5793C12.5681 13.5255 12.7078 13.4979 12.8488 13.4981C12.9899 13.4979 13.1296 13.5255 13.26 13.5793C13.3904 13.6331 13.5089 13.712 13.6088 13.8116C13.7087 13.9112 13.7879 14.0295 13.8421 14.1598C13.8963 14.29 13.9243 14.4296 13.9245 14.5707ZM13.6076 14.2152C13.6076 14.1414 13.5783 14.0707 13.5262 14.0185C13.474 13.9663 13.4032 13.937 13.3295 13.937C13.2557 13.937 13.1849 13.9663 13.1328 14.0185C13.0806 14.0707 13.0513 14.1414 13.0513 14.2152C13.0513 14.289 13.0806 14.3598 13.1328 14.4119C13.1849 14.4641 13.2557 14.4934 13.3295 14.4934C13.4032 14.4934 13.474 14.4641 13.5262 14.4119C13.5783 14.3598 13.6076 14.289 13.6076 14.2152Z" fill="#14307E"/>
</g>
</g>
<defs>
<clipPath id="clip0_472_961">
<rect width="34" height="34" fill="white"/>
</clipPath>
</defs>
</svg>
