<svg width="28" height="28" viewBox="0 0 28 28" fill="none" xmlns="http://www.w3.org/2000/svg">
<path d="M12.7863 12.8239C12.1361 13.4742 12.1361 14.528 12.7863 15.1777C13.436 15.8279 14.4903 15.8279 15.14 15.1777C15.7902 14.5275 15.7902 13.4736 15.14 12.8239C14.4898 12.1743 13.436 12.1743 12.7863 12.8239ZM13.9629 1.10107C6.83825 1.10107 1.0629 6.87642 1.0629 14.0011C1.0629 21.1257 6.83825 26.9011 13.9629 26.9011C21.0875 26.9011 26.8629 21.1257 26.8629 14.0011C26.8629 6.87642 21.0875 1.10107 13.9629 1.10107ZM20.5242 8.80206L17.0927 16.3106C16.9267 16.6737 16.6355 16.9649 16.2724 17.1309L8.7644 20.5624C7.89834 20.9582 7.00574 20.0656 7.40158 19.1996L10.8336 11.691C10.9996 11.3279 11.2908 11.0367 11.6539 10.8707L19.1619 7.43924C20.028 7.04392 20.9201 7.93599 20.5242 8.80206Z" fill="#D2F159"/>
</svg>
