<svg width="48" height="48" viewBox="0 0 48 48" fill="none" xmlns="http://www.w3.org/2000/svg">
<rect width="48" height="48" rx="24" fill="#1E1F24"/>
<path d="M22.7863 22.8238C22.1361 23.474 22.1361 24.5279 22.7863 25.1776C23.436 25.8278 24.4903 25.8278 25.14 25.1776C25.7902 24.5274 25.7902 23.4735 25.14 22.8238C24.4898 22.1741 23.436 22.1741 22.7863 22.8238ZM23.9629 11.101C16.8382 11.101 11.0629 16.8763 11.0629 24.001C11.0629 31.1256 16.8382 36.901 23.9629 36.901C31.0875 36.901 36.8629 31.1256 36.8629 24.001C36.8629 16.8763 31.0875 11.101 23.9629 11.101ZM30.5242 18.8019L27.0927 26.3105C26.9267 26.6736 26.6355 26.9648 26.2724 27.1308L18.7644 30.5623C17.8983 30.9581 17.0057 30.0655 17.4016 29.1994L20.8336 21.6909C20.9996 21.3278 21.2908 21.0366 21.6539 20.8706L29.1619 17.4391C30.028 17.0438 30.9201 17.9359 30.5242 18.8019Z" fill="#D2F159"/>
</svg>
