<svg width="28" height="29" viewBox="0 0 28 29" fill="none" xmlns="http://www.w3.org/2000/svg">
<path d="M18.875 14.75H16.9143C16.1166 14.0675 15.1136 13.5785 14 13.3281V10.913L12.375 10.7413L10.75 10.913V13.3281C9.63637 13.582 8.63344 14.0695 7.83566 14.75H1.8125C1.59701 14.75 1.39035 14.8356 1.23798 14.988C1.0856 15.1403 1 15.347 1 15.5625L1 20.4375C1 20.653 1.0856 20.8597 1.23798 21.012C1.39035 21.1644 1.59701 21.25 1.8125 21.25H6.52449C7.57008 23.166 9.78516 24.5 12.375 24.5C14.9648 24.5 17.1799 23.166 18.2255 21.25H18.875C19.306 21.25 19.7193 21.4212 20.024 21.726C20.3288 22.0307 20.5 22.444 20.5 22.875C20.5 23.306 20.6712 23.7193 20.976 24.024C21.2807 24.3288 21.694 24.5 22.125 24.5H25.375C25.806 24.5 26.2193 24.3288 26.524 24.024C26.8288 23.7193 27 23.306 27 22.875C27 20.7201 26.144 18.6535 24.6202 17.1298C23.0965 15.606 21.0299 14.75 18.875 14.75ZM5.14324 9.87043L12.375 9.10871L19.6068 9.87043C20.0851 9.92121 20.5 9.52461 20.5 9.0173V7.4827C20.5 6.97488 20.0851 6.57879 19.6068 6.62906L14 7.22117V5.8125C14 5.59701 13.9144 5.39035 13.762 5.23798C13.6097 5.0856 13.403 5 13.1875 5H11.5625C11.347 5 11.1403 5.0856 10.988 5.23798C10.8356 5.39035 10.75 5.59701 10.75 5.8125V7.22117L5.14324 6.62906C4.66488 6.57879 4.25 6.97539 4.25 7.4827V9.0173C4.25 9.52461 4.66488 9.92121 5.14324 9.87043Z" fill="#D2F159"/>
</svg>
