<svg width="48" height="48" viewBox="0 0 48 48" fill="none" xmlns="http://www.w3.org/2000/svg">
<rect width="48" height="48" rx="24" fill="#1E1F24"/>
<path d="M28.875 23.75H26.9143C26.1166 23.0675 25.1136 22.5785 24 22.3281V19.913L22.375 19.7413L20.75 19.913V22.3281C19.6364 22.582 18.6334 23.0695 17.8357 23.75H11.8125C11.597 23.75 11.3903 23.8356 11.238 23.988C11.0856 24.1403 11 24.347 11 24.5625V29.4375C11 29.653 11.0856 29.8597 11.238 30.012C11.3903 30.1644 11.597 30.25 11.8125 30.25H16.5245C17.5701 32.166 19.7852 33.5 22.375 33.5C24.9648 33.5 27.1799 32.166 28.2255 30.25H28.875C29.306 30.25 29.7193 30.4212 30.024 30.726C30.3288 31.0307 30.5 31.444 30.5 31.875C30.5 32.306 30.6712 32.7193 30.976 33.024C31.2807 33.3288 31.694 33.5 32.125 33.5H35.375C35.806 33.5 36.2193 33.3288 36.524 33.024C36.8288 32.7193 37 32.306 37 31.875C37 29.7201 36.144 27.6535 34.6202 26.1298C33.0965 24.606 31.0299 23.75 28.875 23.75ZM15.1432 18.8704L22.375 18.1087L29.6068 18.8704C30.0851 18.9212 30.5 18.5246 30.5 18.0173V16.4827C30.5 15.9749 30.0851 15.5788 29.6068 15.6291L24 16.2212V14.8125C24 14.597 23.9144 14.3903 23.762 14.238C23.6097 14.0856 23.403 14 23.1875 14H21.5625C21.347 14 21.1403 14.0856 20.988 14.238C20.8356 14.3903 20.75 14.597 20.75 14.8125V16.2212L15.1432 15.6291C14.6649 15.5788 14.25 15.9754 14.25 16.4827V18.0173C14.25 18.5246 14.6649 18.9212 15.1432 18.8704Z" fill="#D2F159"/>
</svg>
