<svg width="48" height="48" viewBox="0 0 48 48" fill="none" xmlns="http://www.w3.org/2000/svg">
<rect width="48" height="48" rx="24" fill="#1E1F24"/>
<g clip-path="url(#clip0_437_1784)">
<path d="M14.6758 32.5859C14.6758 34.543 15.8242 35.5625 17.7812 35.5625H23.2891V25.0391H14.6758V32.5859ZM25.2109 35.5625H30.7305C32.6758 35.5625 33.8359 34.543 33.8359 32.5859V25.0391H25.2109V35.5625ZM13 22.0391C13 23.293 13.7031 23.7852 14.9688 23.7852H23.2891V17.4453H21.4609C19.6211 17.4453 18.543 16.2852 18.543 14.9961C18.543 13.707 19.4805 12.957 20.7695 12.957C22.1641 12.957 23.2891 14.0117 23.2891 15.7461V17.4453H25.2109V15.7461C25.2109 14.0117 26.3359 12.957 27.7305 12.957C29.0195 12.957 29.957 13.707 29.957 14.9961C29.957 16.2852 28.8906 17.4453 27.0391 17.4453H25.2109V23.7852H33.543C34.8086 23.7852 35.5117 23.293 35.5117 22.0391V19.1914C35.5117 17.9375 34.8086 17.4453 33.543 17.4453H30.8242C31.5039 16.8008 31.9141 15.9219 31.9141 14.8906C31.9141 12.6172 30.1211 11 27.8477 11C26.207 11 24.8477 11.9023 24.25 13.4727C23.6523 11.9023 22.3047 11 20.6523 11C18.3906 11 16.5859 12.6172 16.5859 14.8906C16.5859 15.9219 16.9961 16.8008 17.6875 17.4453H14.9688C13.7617 17.4453 13 17.9375 13 19.1914V22.0391Z" fill="#D2F159"/>
</g>
<defs>
<clipPath id="clip0_437_1784">
<rect width="22.5117" height="25.8867" fill="white" transform="translate(13 11)"/>
</clipPath>
</defs>
</svg>
