<svg width="28" height="28" viewBox="0 0 28 28" fill="none" xmlns="http://www.w3.org/2000/svg">
<g clip-path="url(#clip0_437_1786)">
<path d="M4.67578 22.5859C4.67578 24.543 5.82422 25.5625 7.78125 25.5625H13.2891V15.0391H4.67578V22.5859ZM15.2109 25.5625H20.7305C22.6758 25.5625 23.8359 24.543 23.8359 22.5859V15.0391H15.2109V25.5625ZM3 12.0391C3 13.293 3.70312 13.7852 4.96875 13.7852H13.2891V7.44531H11.4609C9.62109 7.44531 8.54297 6.28516 8.54297 4.99609C8.54297 3.70703 9.48047 2.95703 10.7695 2.95703C12.1641 2.95703 13.2891 4.01172 13.2891 5.74609V7.44531H15.2109V5.74609C15.2109 4.01172 16.3359 2.95703 17.7305 2.95703C19.0195 2.95703 19.957 3.70703 19.957 4.99609C19.957 6.28516 18.8906 7.44531 17.0391 7.44531H15.2109V13.7852H23.543C24.8086 13.7852 25.5117 13.293 25.5117 12.0391V9.19141C25.5117 7.9375 24.8086 7.44531 23.543 7.44531H20.8242C21.5039 6.80078 21.9141 5.92188 21.9141 4.89062C21.9141 2.61719 20.1211 1 17.8477 1C16.207 1 14.8477 1.90234 14.25 3.47266C13.6523 1.90234 12.3047 1 10.6523 1C8.39062 1 6.58594 2.61719 6.58594 4.89062C6.58594 5.92188 6.99609 6.80078 7.6875 7.44531H4.96875C3.76172 7.44531 3 7.9375 3 9.19141V12.0391Z" fill="#D2F159"/>
</g>
<defs>
<clipPath id="clip0_437_1786">
<rect width="22.5117" height="25.8867" fill="white" transform="translate(3 1)"/>
</clipPath>
</defs>
</svg>
