<svg width="28" height="28" viewBox="0 0 28 28" fill="none" xmlns="http://www.w3.org/2000/svg">
<path d="M5.21963 3.75H21.9923C23.359 3.75 24.4772 4.86819 24.4772 6.23486V9.3409H2.73477V6.23486C2.73477 4.86819 3.85296 3.75 5.21963 3.75ZM5.82745 7.47728H9.61227C10.1093 7.47728 10.1893 7.30859 10.1893 6.54547C10.1893 5.78232 10.1093 5.61362 9.61227 5.61362H5.82745C5.40037 5.61362 5.21963 5.82114 5.21963 6.54547C5.21963 7.26976 5.35617 7.47728 5.82745 7.47728ZM17.0226 6.54547C17.0226 7.04243 17.4575 7.47728 17.9545 7.47728C18.4514 7.47728 18.8863 7.04243 18.8863 6.54547C18.8863 6.04848 18.4514 5.61362 17.9545 5.61362C17.4575 5.61362 17.0226 6.04848 17.0226 6.54547ZM20.1287 6.54547C20.1287 7.04243 20.5635 7.47728 21.0605 7.47728C21.5575 7.47728 21.9923 7.04243 21.9923 6.54547C21.9923 6.04848 21.5575 5.61362 21.0605 5.61362C20.5635 5.61362 20.1287 6.04848 20.1287 6.54547ZM2.73477 18.6591H17.0226V18.6594L24.4828 18.6602V22.0158C24.4828 23.2444 23.4869 24.2403 22.2583 24.2403H19.5587L19.5696 24.25H5.21963C3.85296 24.25 2.73477 23.1318 2.73477 21.7651V18.6591ZM6.18091 22.3864H9.627C10.124 22.3864 10.1893 21.9515 10.1893 21.4545C10.1893 20.9576 10.124 20.5227 9.627 20.5227H6.18091C5.68391 20.5227 5.68019 20.9576 5.68019 21.4545C5.68019 21.9515 5.68391 22.3864 6.18091 22.3864ZM18.9084 21.44C18.9084 21.9604 18.4866 22.3822 17.9663 22.3822C17.4459 22.3822 17.0241 21.9604 17.0241 21.44C17.0241 20.9197 17.4459 20.4979 17.9663 20.4979C18.4866 20.4979 18.9084 20.9197 18.9084 21.44ZM21.0544 22.3822C21.5747 22.3822 21.9966 21.9604 21.9966 21.44C21.9966 20.9197 21.5747 20.4979 21.0544 20.4979C20.5341 20.4979 20.1123 20.9197 20.1123 21.44C20.1123 21.9604 20.5341 22.3822 21.0544 22.3822ZM2.73477 16.7955V11.1424H13.5732V11.1347H24.4678V16.7954L2.73477 16.7955ZM9.61227 13.0682H5.82745C5.33046 13.0682 5.21963 13.503 5.21963 14C5.21963 14.497 5.33046 14.9318 5.82745 14.9318H9.61227C10.1093 14.9318 10.1893 14.497 10.1893 14C10.1893 13.503 10.1093 13.0682 9.61227 13.0682ZM17.9663 14.9497C18.4866 14.9497 18.9084 14.5278 18.9084 14.0075C18.9084 13.4872 18.4866 13.0654 17.9663 13.0654C17.4459 13.0654 17.0241 13.4872 17.0241 14.0075C17.0241 14.5278 17.4459 14.9497 17.9663 14.9497ZM21.9966 14.0075C21.9966 14.5278 21.5747 14.9497 21.0544 14.9497C20.5341 14.9497 20.1123 14.5278 20.1123 14.0075C20.1123 13.4872 20.5341 13.0654 21.0544 13.0654C21.5747 13.0654 21.9966 13.4872 21.9966 14.0075Z" fill="#D2F159"/>
</svg>
