<svg width="48" height="48" viewBox="0 0 48 48" fill="none" xmlns="http://www.w3.org/2000/svg">
<rect width="48" height="48" rx="24" fill="#1E1F24"/>
<path d="M17.7817 26.3333H14.6667C13.3833 26.3333 12.3333 27.3833 12.3333 28.6666V34.4999C12.3333 35.1416 12.8583 35.6666 13.5 35.6666H17.7817C18.4233 35.6666 18.9483 35.1416 18.9483 34.4999V27.4999C18.9483 26.8583 18.4233 26.3333 17.7817 26.3333Z" fill="#D2F159"/>
<path d="M25.5516 21.6667H22.4366C21.1532 21.6667 20.1032 22.7167 20.1032 24.0001V34.5001C20.1032 35.1417 20.6282 35.6667 21.2699 35.6667H26.7182C27.3599 35.6667 27.8849 35.1417 27.8849 34.5001V24.0001C27.8849 22.7167 26.8466 21.6667 25.5516 21.6667Z" fill="#D2F159"/>
<path d="M33.3334 29.8333H30.2184C29.5768 29.8333 29.0518 30.3583 29.0518 30.9999V34.4999C29.0518 35.1416 29.5768 35.6666 30.2184 35.6666H34.5001C35.1418 35.6666 35.6668 35.1416 35.6668 34.4999V32.1666C35.6668 30.8833 34.6168 29.8333 33.3334 29.8333Z" fill="#D2F159"/>
<path d="M27.5116 15.6582C27.8733 15.2966 28.0133 14.8649 27.8966 14.4916C27.7799 14.1182 27.4183 13.8499 26.9049 13.7682L25.7849 13.5816C25.7383 13.5816 25.6333 13.4999 25.6099 13.4532L24.9916 12.2166C24.5249 11.2716 23.4633 11.2716 22.9966 12.2166L22.3783 13.4532C22.3666 13.4999 22.2616 13.5816 22.2149 13.5816L21.0949 13.7682C20.5816 13.8499 20.2316 14.1182 20.1033 14.4916C19.9866 14.8649 20.1266 15.2966 20.4883 15.6582L21.3516 16.5332C21.3983 16.5682 21.4333 16.7082 21.4216 16.7549L21.1766 17.8282C20.9899 18.6332 21.2933 18.9949 21.4916 19.1349C21.6899 19.2749 22.1216 19.4616 22.8333 19.0416L23.8833 18.4232C23.9299 18.3882 24.0816 18.3882 24.1283 18.4232L25.1666 19.0416C25.4933 19.2399 25.7616 19.2982 25.9716 19.2982C26.2166 19.2982 26.3916 19.2049 26.4966 19.1349C26.6949 18.9949 26.9983 18.6332 26.8116 17.8282L26.5666 16.7549C26.5549 16.6966 26.5899 16.5682 26.6366 16.5332L27.5116 15.6582Z" fill="#D2F159"/>
</svg>
