<svg width="28" height="28" viewBox="0 0 28 28" fill="none" xmlns="http://www.w3.org/2000/svg">
<path d="M13.2259 12.8035L14.6028 11.426C14.9182 11.1106 15.3456 10.9328 15.7917 10.9316C16.2378 10.9305 16.6662 11.1059 16.9832 11.4197L26.5561 20.2543C26.9047 20.5828 27.1335 21.0016 27.1546 21.4704C27.1648 21.7029 27.1269 21.935 27.0433 22.1522C26.9598 22.3694 26.8323 22.5671 26.669 22.7328L24.6123 24.8121C24.6112 24.8135 24.61 24.8147 24.6086 24.8158C24.2908 25.1326 23.8608 25.3111 23.4121 25.3126H23.3499C22.881 25.2952 22.4613 25.0753 22.128 24.7235L13.2317 15.1944C13.074 15.038 12.9486 14.852 12.8629 14.6471C12.7772 14.4422 12.7328 14.2223 12.7323 14.0002C12.7318 13.778 12.7751 13.558 12.8598 13.3526C12.9445 13.1472 13.0689 12.9606 13.2259 12.8035Z" fill="#D2F159"/>
<path d="M2.16026 10.0195L2.1766 10.0032L3.98381 8.21444C4.08967 8.10893 4.21538 8.02543 4.35368 7.96877C4.49198 7.91211 4.64014 7.88341 4.78959 7.88432C5.03175 7.88454 5.2677 7.96092 5.46406 8.10264C5.46406 8.07996 5.4609 8.05781 5.45932 8.0383C5.43559 7.69553 5.39867 7.17768 5.73354 6.70834C6.13167 6.17172 6.56879 5.66515 7.04135 5.19276C7.04262 5.19122 7.04403 5.18981 7.04557 5.18854C7.74799 4.49666 9.27676 3.1936 11.6187 2.23858C12.5069 1.87406 13.4578 1.68685 14.4178 1.6875C16.0821 1.6875 17.3478 2.43844 17.8324 2.88352C18.1068 3.14562 18.3571 3.43189 18.5802 3.73887C18.6867 3.88598 18.743 4.06357 18.7406 4.24521C18.7381 4.42686 18.6771 4.60287 18.5666 4.74707C18.4561 4.89127 18.3021 4.99596 18.1273 5.04557C17.9525 5.09518 17.7664 5.08706 17.5967 5.02242C17.4488 4.96714 17.2977 4.92082 17.1442 4.88373C16.8246 4.81614 16.4968 4.7957 16.1713 4.82309C15.4757 4.88057 14.653 5.22598 14.2892 5.51338C13.6722 6.00961 13.3753 6.67828 13.3262 7.68024C13.3167 7.88168 13.7333 8.63684 14.3809 9.49852C14.5043 9.66113 14.5645 9.86295 14.5504 10.0666C14.5364 10.2702 14.449 10.4618 14.3045 10.6059L12.4899 12.4205C12.3374 12.5734 12.1321 12.662 11.9163 12.668C11.7005 12.6741 11.4906 12.5972 11.3297 12.4532C10.8166 11.995 10.0351 11.3041 9.76192 11.1349C9.35639 10.8854 9.06635 10.8374 8.98672 10.829C8.78009 10.8087 8.57222 10.8526 8.39135 10.9545C8.39045 10.9635 8.39144 10.9727 8.39425 10.9813C8.39707 10.9899 8.40165 10.9979 8.4077 11.0046L8.50367 11.0958L8.51949 11.1106C8.62554 11.2163 8.70964 11.3419 8.76694 11.4802C8.82424 11.6184 8.85362 11.7667 8.85337 11.9164C8.85313 12.0661 8.82327 12.2143 8.76551 12.3524C8.70776 12.4905 8.62325 12.6158 8.51686 12.7211L6.71018 14.5093C6.60429 14.6148 6.47857 14.6982 6.34026 14.7548C6.20196 14.8113 6.05382 14.8399 5.9044 14.8389C5.60434 14.8394 5.31611 14.722 5.10178 14.512L2.17502 11.6211C2.165 11.6111 2.15498 11.6005 2.14549 11.59C1.94914 11.3747 1.84153 11.0932 1.84427 10.8018C1.84701 10.5105 1.9599 10.231 2.16026 10.0195Z" fill="#D2F159"/>
</svg>
