<svg width="48" height="48" viewBox="0 0 48 48" fill="none" xmlns="http://www.w3.org/2000/svg">
<rect width="48" height="48" rx="24" fill="#1E1F24"/>
<path d="M22.7259 23.3035L24.1028 21.926C24.4182 21.6106 24.8456 21.4328 25.2917 21.4316C25.7378 21.4305 26.1662 21.6059 26.4832 21.9197L36.0561 30.7543C36.4047 31.0828 36.6335 31.5016 36.6546 31.9704C36.6648 32.2029 36.6269 32.435 36.5433 32.6522C36.4598 32.8694 36.3323 33.0671 36.169 33.2328L34.1123 35.3121C34.1112 35.3135 34.11 35.3147 34.1086 35.3158C33.7908 35.6326 33.3608 35.8111 32.9121 35.8126H32.8499C32.381 35.7952 31.9613 35.5753 31.628 35.2235L22.7317 25.6944C22.574 25.538 22.4486 25.352 22.3629 25.1471C22.2772 24.9422 22.2328 24.7223 22.2323 24.5002C22.2318 24.278 22.2751 24.058 22.3598 23.8526C22.4445 23.6472 22.5689 23.4606 22.7259 23.3035Z" fill="#D2F159"/>
<path d="M11.6603 20.5195L11.6766 20.5032L13.4838 18.7144C13.5897 18.6089 13.7154 18.5254 13.8537 18.4688C13.992 18.4121 14.1401 18.3834 14.2896 18.3843C14.5317 18.3845 14.7677 18.4609 14.9641 18.6026C14.9641 18.58 14.9609 18.5578 14.9593 18.5383C14.9356 18.1955 14.8987 17.6777 15.2335 17.2083C15.6317 16.6717 16.0688 16.1652 16.5413 15.6928C16.5426 15.6912 16.544 15.6898 16.5456 15.6885C17.248 14.9967 18.7768 13.6936 21.1187 12.7386C22.0069 12.3741 22.9578 12.1868 23.9178 12.1875C25.5821 12.1875 26.8478 12.9384 27.3324 13.3835C27.6068 13.6456 27.8571 13.9319 28.0802 14.2389C28.1867 14.386 28.243 14.5636 28.2406 14.7452C28.2381 14.9269 28.1771 15.1029 28.0666 15.2471C27.9561 15.3913 27.8021 15.496 27.6273 15.5456C27.4525 15.5952 27.2664 15.5871 27.0967 15.5224C26.9488 15.4671 26.7977 15.4208 26.6442 15.3837C26.3246 15.3161 25.9968 15.2957 25.6713 15.3231C24.9757 15.3806 24.153 15.726 23.7892 16.0134C23.1722 16.5096 22.8753 17.1783 22.8262 18.1802C22.8167 18.3817 23.2333 19.1368 23.8809 19.9985C24.0043 20.1611 24.0645 20.3629 24.0504 20.5666C24.0364 20.7702 23.949 20.9618 23.8045 21.1059L21.9899 22.9205C21.8374 23.0734 21.6321 23.162 21.4163 23.168C21.2005 23.1741 20.9906 23.0972 20.8297 22.9532C20.3166 22.495 19.5351 21.8041 19.2619 21.6349C18.8564 21.3854 18.5663 21.3374 18.4867 21.329C18.2801 21.3087 18.0722 21.3526 17.8913 21.4545C17.8905 21.4635 17.8914 21.4727 17.8943 21.4813C17.8971 21.4899 17.9016 21.4979 17.9077 21.5046L18.0037 21.5958L18.0195 21.6106C18.1255 21.7163 18.2096 21.8419 18.2669 21.9802C18.3242 22.1184 18.3536 22.2667 18.3534 22.4164C18.3531 22.5661 18.3233 22.7143 18.2655 22.8524C18.2078 22.9905 18.1233 23.1158 18.0169 23.2211L16.2102 25.0093C16.1043 25.1148 15.9786 25.1982 15.8403 25.2548C15.702 25.3113 15.5538 25.3399 15.4044 25.3389C15.1043 25.3394 14.8161 25.222 14.6018 25.012L11.675 22.1211C11.665 22.1111 11.655 22.1005 11.6455 22.09C11.4491 21.8747 11.3415 21.5932 11.3443 21.3018C11.347 21.0105 11.4599 20.731 11.6603 20.5195Z" fill="#D2F159"/>
</svg>
