<svg width="28" height="28" viewBox="0 0 28 28" fill="none" xmlns="http://www.w3.org/2000/svg">
<path d="M24.2275 4C25.4827 4.0001 26.5 5.01833 26.5 6.27344V22.1816C26.4998 23.4366 25.4825 24.455 24.2275 24.4551H3.77344C2.51848 24.455 1.50021 23.4366 1.5 22.1816V6.27344C1.5 5.01832 2.51835 4.0001 3.77344 4H24.2275ZM7.18262 17.6357C6.5551 17.6357 6.046 18.145 6.0459 18.7725C6.04597 19.4 6.55508 19.9092 7.18262 19.9092H20.8184L20.9346 19.9033C21.5077 19.8453 21.955 19.3609 21.9551 18.7725C21.955 18.1841 21.5076 17.6997 20.9346 17.6416L20.8184 17.6357H7.18262ZM7.18262 13.0908C6.55503 13.0908 6.0459 13.6 6.0459 14.2275C6.0461 14.855 6.55516 15.3643 7.18262 15.3643H10.5918L10.708 15.3584C11.2808 15.3001 11.7274 14.8156 11.7275 14.2275C11.7275 13.6393 11.2809 13.155 10.708 13.0967L10.5918 13.0908H7.18262ZM16.2734 8.54492C15.6459 8.54492 15.1369 9.05419 15.1367 9.68164V14.2266C15.1368 14.8541 15.6459 15.3633 16.2734 15.3633H20.8184C21.4458 15.3631 21.955 14.854 21.9551 14.2266V9.68164C21.9549 9.05428 21.4457 8.54507 20.8184 8.54492H16.2734ZM7.18262 8.54492C6.55513 8.54493 6.04606 9.05419 6.0459 9.68164C6.04597 10.3092 6.55508 10.8184 7.18262 10.8184H10.5918L10.708 10.8125C11.2808 10.7542 11.7275 10.2698 11.7275 9.68164C11.7274 9.09352 11.2808 8.60911 10.708 8.55078L10.5918 8.54492H7.18262Z" fill="#D2F159"/>
</svg>
