<svg width="48" height="48" viewBox="0 0 48 48" fill="none" xmlns="http://www.w3.org/2000/svg">
<rect width="48" height="48" rx="24" fill="#1E1F24"/>
<path d="M34.2271 13.7729C35.4822 13.773 36.4995 14.7913 36.4995 16.0464V31.9546C36.4993 33.2095 35.482 34.2279 34.2271 34.228H13.7729C12.518 34.2279 11.4997 33.2096 11.4995 31.9546V16.0464C11.4995 14.7913 12.5179 13.773 13.7729 13.7729H34.2271ZM17.1821 27.4087C16.5546 27.4087 16.0455 27.9179 16.0454 28.5454C16.0455 29.1729 16.5546 29.6821 17.1821 29.6821H30.8179L30.9341 29.6763C31.5072 29.6182 31.9545 29.1338 31.9546 28.5454C31.9545 27.957 31.5072 27.4726 30.9341 27.4146L30.8179 27.4087H17.1821ZM17.1821 22.8638C16.5545 22.8638 16.0454 23.3729 16.0454 24.0005C16.0456 24.6279 16.5547 25.1372 17.1821 25.1372H20.5913L20.7075 25.1313C21.2803 25.073 21.7269 24.5886 21.7271 24.0005C21.7271 23.4122 21.2804 22.928 20.7075 22.8696L20.5913 22.8638H17.1821ZM26.2729 18.3179C25.6455 18.3179 25.1364 18.8271 25.1362 19.4546V23.9995C25.1363 24.627 25.6454 25.1362 26.2729 25.1362H30.8179C31.4453 25.1361 31.9545 24.6269 31.9546 23.9995V19.4546C31.9544 18.8272 31.4452 18.318 30.8179 18.3179H26.2729ZM17.1821 18.3179C16.5546 18.3179 16.0456 18.8271 16.0454 19.4546C16.0455 20.0821 16.5546 20.5913 17.1821 20.5913H20.5913L20.7075 20.5854C21.2803 20.5271 21.727 20.0428 21.7271 19.4546C21.7269 18.8665 21.2803 18.3821 20.7075 18.3237L20.5913 18.3179H17.1821Z" fill="#D2F159"/>
</svg>
