<svg width="48" height="48" viewBox="0 0 48 48" fill="none" xmlns="http://www.w3.org/2000/svg">
<rect width="48" height="48" rx="24" fill="#1E1F24"/>
<path d="M36.25 27.1066L30.8404 21.6676C30.4452 21.2738 29.9654 20.9752 29.4376 20.7944C28.9098 20.6136 28.3477 20.5553 27.794 20.624C27.2403 20.6927 26.7096 20.8866 26.242 21.1909C25.7743 21.4953 25.3822 21.9021 25.0951 22.3806L17.9632 33.8H15.425C14.4503 33.8 13.5156 33.4128 12.8264 32.7236C12.1372 32.0344 11.75 31.0997 11.75 30.125V17.875C11.75 16.9003 12.1372 15.9656 12.8264 15.2764C13.5156 14.5872 14.4503 14.2 15.425 14.2H32.575C33.5497 14.2 34.4844 14.5872 35.1736 15.2764C35.8628 15.9656 36.25 16.9003 36.25 17.875V27.1066ZM36.2365 30.4435C36.1568 31.3596 35.7366 32.2126 35.0587 32.834C34.3808 33.4554 33.4946 33.8001 32.575 33.8H21.109L27.196 23.6411C27.2916 23.4816 27.4222 23.3459 27.578 23.2444C27.7338 23.1429 27.9107 23.0782 28.0952 23.0552C28.2797 23.0321 28.467 23.0514 28.643 23.1116C28.8189 23.1717 28.9789 23.2711 29.1107 23.4022L36.2365 30.4435ZM19.1 25.225C20.0747 25.225 21.0094 24.8378 21.6986 24.1486C22.3878 23.4594 22.775 22.5247 22.775 21.55C22.775 20.5753 22.3878 19.6406 21.6986 18.9514C21.0094 18.2622 20.0747 17.875 19.1 17.875C18.1253 17.875 17.1906 18.2622 16.5014 18.9514C15.8122 19.6406 15.425 20.5753 15.425 21.55C15.425 22.5247 15.8122 23.4594 16.5014 24.1486C17.1906 24.8378 18.1253 25.225 19.1 25.225Z" fill="#D2F159"/>
</svg>
