<svg width="28" height="28" viewBox="0 0 28 28" fill="none" xmlns="http://www.w3.org/2000/svg">
<path d="M26.5 16.9066L21.0904 11.4676C20.6952 11.0738 20.2154 10.7752 19.6876 10.5944C19.1598 10.4136 18.5977 10.3553 18.044 10.424C17.4903 10.4927 16.9596 10.6866 16.492 10.9909C16.0243 11.2953 15.6322 11.7021 15.3451 12.1805L8.2132 23.6H5.675C4.70033 23.6 3.76558 23.2128 3.07638 22.5236C2.38719 21.8344 2 20.8997 2 19.925L2 7.675C2 6.70033 2.38719 5.76558 3.07638 5.07638C3.76558 4.38719 4.70033 4 5.675 4H22.825C23.7997 4 24.7344 4.38719 25.4236 5.07638C26.1128 5.76558 26.5 6.70033 26.5 7.675V16.9066ZM26.4865 20.2435C26.4068 21.1596 25.9866 22.0126 25.3087 22.634C24.6308 23.2554 23.7446 23.6001 22.825 23.6H11.359L17.446 13.4411C17.5416 13.2816 17.6722 13.1459 17.828 13.0444C17.9838 12.9429 18.1607 12.8782 18.3452 12.8551C18.5297 12.8321 18.717 12.8514 18.893 12.9115C19.0689 12.9717 19.2289 13.0711 19.3607 13.2022L26.4865 20.2435ZM9.35 15.025C10.3247 15.025 11.2594 14.6378 11.9486 13.9486C12.6378 13.2594 13.025 12.3247 13.025 11.35C13.025 10.3753 12.6378 9.44058 11.9486 8.75138C11.2594 8.06219 10.3247 7.675 9.35 7.675C8.37533 7.675 7.44058 8.06219 6.75138 8.75138C6.06219 9.44058 5.675 10.3753 5.675 11.35C5.675 12.3247 6.06219 13.2594 6.75138 13.9486C7.44058 14.6378 8.37533 15.025 9.35 15.025Z" fill="#D2F159"/>
</svg>
