<svg width="28" height="28" viewBox="0 0 28 28" fill="none" xmlns="http://www.w3.org/2000/svg">
<path d="M6.20385 3.01308L6.20385 5.56757L19.6908 5.56757C22.5087 5.56757 24.2842 7.06601 24.2842 9.12102C24.2842 11.1903 22.5413 12.7315 19.6908 12.7315L8.53314 12.7315C3.80952 12.7315 0.81236 15.3146 0.81236 18.8823C0.81236 22.4358 3.80952 24.9902 8.53314 24.9902L21.8897 24.9902L21.8897 22.4358L8.30518 22.4358C5.50346 22.4358 3.72807 20.9373 3.72807 18.8823C3.72807 16.8131 5.47093 15.2717 8.30518 15.2717L19.4628 15.2717C24.1864 15.2717 27.1835 12.6887 27.1835 9.12102C27.1835 5.56757 24.1864 3.01309 19.4628 3.01309L6.20385 3.01308ZM7.44189 1.01516C7.44189 -0.0123462 6.64363 -0.269222 5.74781 0.287342L0.568006 3.48403C-0.197441 3.95495 -0.181179 4.63996 0.568006 5.09662L5.76407 8.2933C6.64364 8.83561 7.44189 8.57873 7.44189 7.5655L7.44189 1.01516ZM20.5541 20.452L20.5541 26.9881C20.5541 28.0014 21.3522 28.2725 22.2481 27.716L27.4441 24.5336C28.1771 24.0769 28.1934 23.3919 27.4441 22.921L22.2644 19.7243C21.3522 19.1534 20.5541 19.4246 20.5541 20.452Z" fill="#D2F159"/>
</svg>
