<svg width="48" height="48" viewBox="0 0 48 48" fill="none" xmlns="http://www.w3.org/2000/svg">
<rect width="48" height="48" rx="24" fill="#1E1F24"/>
<path fill-rule="evenodd" clip-rule="evenodd" d="M19.3333 12.3333H28.9933C31.5707 12.3333 33.66 14.4226 33.66 16.9999V31.7233C33.66 34.3006 31.5707 36.3899 28.9933 36.3899H19.3333C16.756 36.3899 14.6667 34.3006 14.6667 31.7233V16.9999C14.6667 14.4226 16.756 12.3333 19.3333 12.3333ZM26.9517 19.4266H19.135C18.6646 19.4266 18.2833 19.8079 18.2833 20.2783C18.2833 20.7486 18.6646 21.1299 19.135 21.1299H26.9517C27.422 21.1299 27.8033 20.7486 27.8033 20.2783C27.8033 19.8079 27.422 19.4266 26.9517 19.4266ZM24.7233 30.4633H19.135C18.6646 30.4633 18.2833 30.0819 18.2833 29.6116C18.2833 29.1412 18.6646 28.7599 19.135 28.7599H24.7233C25.1937 28.7599 25.575 29.1412 25.575 29.6116C25.575 30.0819 25.1937 30.4633 24.7233 30.4633ZM19.135 25.7966H29.1917C29.662 25.7966 30.0433 25.4153 30.0433 24.9449C30.0433 24.4746 29.662 24.0933 29.1917 24.0933H19.135C18.6646 24.0933 18.2833 24.4746 18.2833 24.9449C18.2833 25.4153 18.6646 25.7966 19.135 25.7966Z" fill="#D2F159"/>
</svg>
