<svg width="28" height="28" viewBox="0 0 28 28" fill="none" xmlns="http://www.w3.org/2000/svg">
<path fill-rule="evenodd" clip-rule="evenodd" d="M9.33332 2.33325H18.9933C21.5707 2.33325 23.66 4.42259 23.66 6.99992V21.7233C23.66 24.3006 21.5707 26.3899 18.9933 26.3899H9.33332C6.75599 26.3899 4.66666 24.3006 4.66666 21.7233V6.99992C4.66666 4.42259 6.75599 2.33325 9.33332 2.33325ZM16.9517 9.42658H9.13499C8.66463 9.42658 8.28332 9.80789 8.28332 10.2783C8.28332 10.7486 8.66463 11.1299 9.13499 11.1299H16.9517C17.422 11.1299 17.8033 10.7486 17.8033 10.2783C17.8033 9.80789 17.422 9.42658 16.9517 9.42658ZM14.7233 20.4633H9.13499C8.66463 20.4633 8.28332 20.0819 8.28332 19.6116C8.28332 19.1412 8.66463 18.7599 9.13499 18.7599H14.7233C15.1937 18.7599 15.575 19.1412 15.575 19.6116C15.575 20.0819 15.1937 20.4633 14.7233 20.4633ZM9.13499 15.7966H19.1917C19.662 15.7966 20.0433 15.4153 20.0433 14.9449C20.0433 14.4746 19.662 14.0933 19.1917 14.0933H9.13499C8.66463 14.0933 8.28332 14.4746 8.28332 14.9449C8.28332 15.4153 8.66463 15.7966 9.13499 15.7966Z" fill="#D2F159"/>
</svg>
